<svg xmlns="http://www.w3.org/2000/svg" viewBox="0 0 138.82 199.47"><defs><style>.cls-1{fill:#ede962;stroke:#37812f;stroke-miterlimit:10;stroke-width:3px;}.cls-1,.cls-2,.cls-3,.cls-4,.cls-7{fill-rule:evenodd;}.cls-2,.cls-5{fill:#323130;}.cls-3{fill:#a96f36;}.cls-4{fill:#f26a5b;}.cls-6{fill:#fff;}.cls-7{fill:#f7a29a;}.cls-8{fill:#2c303a;}.cls-9{fill:#f3f3f3;}</style></defs><g id="Layer_2" data-name="Layer 2"><g id="Layer_1-2" data-name="Layer 1"><path class="cls-1" d="M122.75,139.31a58.69,58.69,0,0,1-3.45,11.58,54.33,54.33,0,0,1-8.92,15.44,55.15,55.15,0,0,1-13.52,11.89,61.59,61.59,0,0,1-18.43,7.57,74.3,74.3,0,0,1-10.71,1.66,59.39,59.39,0,0,1-8.32.23,72.12,72.12,0,0,1-25.88-6.05,66.55,66.55,0,0,1-14.14-8.79,11.82,11.82,0,0,0-2.41-2,14.41,14.41,0,0,1-4.87-5.43A65.69,65.69,0,0,1,6,155.25a50.59,50.59,0,0,1-3.89-14.72,84.46,84.46,0,0,1-.57-13.76,145.08,145.08,0,0,1,1.24-15c.19-1.22.21-2.46.31-3.7a14.7,14.7,0,0,1,1-7.54c1.12-7,2.13-14,3.38-21C8.31,75,9,70.46,9.67,65.9c.51-3.28.72-6.62,1.06-9.93.4-3.81.78-7.62,1.23-11.43A120.05,120.05,0,0,1,14,31.72c1.41-6.13,3.46-11.95,7.29-17C26.57,7.88,33.69,4.37,41.62,2.34c4.61-1.18,9.2-1.41,13.54,1.24a29.69,29.69,0,0,1,8.13,7.68c6,8,10.77,16.87,16.3,25.2,4.16,6.26,8.59,12.29,13.16,18.23,7.27,9.44,14.14,19.2,19.72,29.89a1.83,1.83,0,0,0,.71.88,31.9,31.9,0,0,1,3.94,8.24c.9,2.58,1.79,5.16,2.73,7.73a83.78,83.78,0,0,1,3.79,15.31c.58,3.61.35,7.27.37,10.91,0,1.48,0,3,0,4.45C124.18,134.62,124.15,137.1,122.75,139.31Z"/><path class="cls-2" d="M2.16,117.16c.41-2.21-.82-4.33.87-6.71.69,1.55,4,2.5,4.13,4.12.47,5.28,2,6.17,6.8,7.76,2.51.82,5.19.54,7.83.16a4.6,4.6,0,0,0,3.14-2.4c1-1.52,1.8-3.19,3-4.63a2.38,2.38,0,0,1,.83-.73c.63-.27,1.32-.57,1.9,0s.32,1.15,0,1.74a32.45,32.45,0,0,1-3.1,4.42,42.74,42.74,0,0,1,5.32-1,9.46,9.46,0,0,1,1.4,0c.45.06,1.05,0,1.23.55s-.51.71-.84,1c-2,1.46-4.32,1.81-6.87,2,1.73,1.29,3.26,2.41,4.76,3.58.53.41,1.2,1,.64,1.7a1.51,1.51,0,0,1-2.25.36l-4.42-3c-2.59-1.76-5.38-.93-8.2-.47-3.31.54-6.66,1.34-9.91-.12a9.11,9.11,0,0,1-4.73-4.75A19.43,19.43,0,0,1,2.16,117.16Z"/><path class="cls-2" d="M112.7,85c2,1.24,4.71,8.88,5.29,10.17-.19,2.1.19,3.65-.59,5.6a9.68,9.68,0,0,1-6.71,6,38.71,38.71,0,0,1-8.42,1.09c-3.14.14-5,2-6.61,4.31a16.6,16.6,0,0,1-2.15,2.42,1.3,1.3,0,0,1-1.85.21c-.63-.5-.17-1.05,0-1.58.66-1.75,2.13-2.91,3.2-4.37.15-.2.28-.42.53-.77a14.79,14.79,0,0,1-6.68.06c-.69-.16-1.22-.62-1.21-.94,0-.51.62-.91,1.22-1a41.35,41.35,0,0,1,6.41-.53c-1.28-1.13-2.4-2.1-3.48-3.12-.69-.64-1.58-1.44-.74-2.38s1.81-.49,2.62.26A24.37,24.37,0,0,1,96,102.74a6.7,6.7,0,0,0,7.43,2.51c3.58-.94,6.82-2.42,9-5.61,1-1.36.75-2.83.66-4.27S112.93,86.48,112.7,85Z"/><path class="cls-2" d="M11.76,163.74q2.45,2.72,4.87,5.44c-2.55,3.54-2.21,7.65-1.81,11.64s1.83,7.88,1.88,12a6.75,6.75,0,0,1-8.16,6.47,6.76,6.76,0,0,1-3.7-1.73c-.39-.41-.78-.78-.68-1.45s.94-.64,1.26-.7a9.91,9.91,0,0,1,3.26,0c2.15.35,5-1.75,4.63-3.72A19.32,19.32,0,0,0,12,187.31c-1.8-4.22-3.26-8.48-2.92-13.23C9.34,170.44,9.9,166.91,11.76,163.74Z"/><path class="cls-2" d="M122.41,137.64c.31-1.69.71-3.37.9-5.08a15,15,0,0,1,.42-2.12c2.28.43,3.27,2.38,4.18,4.19a24,24,0,0,1,2.38,15.07c-.33,2-.72,3.93-1,5.91-.66,4.48,2,5.43,5.52,4.88a20.62,20.62,0,0,1,3.14-.55c1,0,1,.55.77,1.18a4.29,4.29,0,0,1-2,2.26c-4.95,3.16-10,.56-10.73-4.85a31.76,31.76,0,0,1,0-6c.26-4.31-.05-8.62-2-12.6A17.88,17.88,0,0,0,122.41,137.64Z"/><path class="cls-3" d="M63.53,149c-7.18-.07-13.07-2.17-17.7-7.18-3.82-4.14-5.77-9.3-6.56-15a27.52,27.52,0,0,1,2.2-16,24.16,24.16,0,0,1,16-13.3,25.51,25.51,0,0,1,17.79,1A23.41,23.41,0,0,1,85.49,108a31.34,31.34,0,0,1,4.42,13.65,28,28,0,0,1-2.27,14.49A17.12,17.12,0,0,1,80,144.15,36.3,36.3,0,0,1,63.53,149Z"/><path class="cls-4" d="M18.69,108.46c2.56,0,3.83,1,4.6,2.88a2.75,2.75,0,0,1-.38,2.68A5.67,5.67,0,0,1,15,115.67c-2.07-1.35-1.58-4.92.89-6.49A3.8,3.8,0,0,1,18.69,108.46Z"/><path class="cls-4" d="M97.12,92.67c-2.65,0-4.42-1.4-4.5-3.53S95,84.62,97.3,84.39c2.81-.29,5.45,2.13,5,4.55C102,90.81,99.52,92.66,97.12,92.67Z"/><path class="cls-2" d="M63.59,85.27a8.78,8.78,0,0,1-7,8.43,9.21,9.21,0,0,1-8.28-1.93,4.67,4.67,0,0,1-1.51-1.86c-.17-.39-.55-.77,0-1.17s.88-.12,1.28.25.9,1.06,1.4,1.55c4.18,4.18,11.56.37,12.44-4.4a6.73,6.73,0,0,1,.23-.8c.22-.69,0-1.93.91-1.85C64.27,83.59,63.11,84.86,63.59,85.27Z"/><path class="cls-2" d="M87.56,75.64c0-2,1-3.26,2.5-3.22,1.83,0,4,2.33,4.06,4.22s-1.38,3.78-2.81,3.63C89.45,80.07,87.23,77.89,87.56,75.64Z"/><path class="cls-2" d="M24.52,94.38c0,2.93-.85,4.11-2.86,4.14-1.36,0-2-.71-2.47-2-.91-2.41.84-5.34,3.23-5.28C24,91.33,24.52,92.17,24.52,94.38Z"/><path class="cls-5" d="M23.24,91.77a3,3,0,0,0,.47-1.88,3,3,0,0,0-.83-1.67c-.17-.18-.44.09-.27.27a2.51,2.51,0,0,1,.72,1.45,2.73,2.73,0,0,1-.42,1.64.19.19,0,0,0,.33.19Z"/><path class="cls-5" d="M21.86,91.84a3.07,3.07,0,0,0-.19-1.94,2.76,2.76,0,0,0-1.33-1.26c-.22-.11-.42.22-.2.33a2.52,2.52,0,0,1,1.19,1.09,2.61,2.61,0,0,1,.16,1.68c0,.24.33.34.37.1Z"/><path class="cls-5" d="M20.37,92.82A2,2,0,0,0,19,90.11c-.23-.09-.33.28-.1.37a1.89,1.89,0,0,1,1.06.84,2,2,0,0,1,.06,1.4.19.19,0,0,0,.37.1Z"/><path class="cls-5" d="M91.31,73a3,3,0,0,0,.47-1.88A2.92,2.92,0,0,0,91,69.44c-.16-.18-.43.09-.27.27a2.58,2.58,0,0,1,.73,1.46A2.74,2.74,0,0,1,91,72.81c-.13.21.2.4.33.19Z"/><path class="cls-5" d="M89.94,73.07a3.18,3.18,0,0,0-.19-1.95,2.85,2.85,0,0,0-1.34-1.25c-.22-.11-.41.22-.19.33a2.48,2.48,0,0,1,1.18,1.08A2.72,2.72,0,0,1,89.57,73c0,.24.32.34.37.1Z"/><path class="cls-5" d="M88.44,74a2.3,2.3,0,0,0-.1-1.69,2.33,2.33,0,0,0-1.28-1c-.23-.08-.33.29-.11.37a2,2,0,0,1,1.06.85,1.86,1.86,0,0,1,.06,1.39.19.19,0,0,0,.37.1Z"/><path class="cls-6" d="M22.14,94.88a.88.88,0,1,1-1.74,0,.88.88,0,1,1,1.74,0Z"/><ellipse class="cls-6" cx="89.62" cy="76.54" rx="0.87" ry="0.97"/><path class="cls-7" d="M71.84,124a2.55,2.55,0,0,1,1.38-1.87,3.85,3.85,0,0,1,2.1-.48A1.3,1.3,0,0,1,76.59,123a2.31,2.31,0,0,1-1.15,2.07,2.66,2.66,0,0,1-2.72.39A1.33,1.33,0,0,1,71.84,124Z"/><path class="cls-7" d="M50.72,131.23a2.57,2.57,0,0,1,1.38-1.87,3.84,3.84,0,0,1,2.1-.47,1.3,1.3,0,0,1,1.27,1.37,2.32,2.32,0,0,1-1.15,2.07,2.66,2.66,0,0,1-2.72.39A1.34,1.34,0,0,1,50.72,131.23Z"/><path class="cls-8" d="M50.27,127.33a2,2,0,0,0,2.38-2,3.49,3.49,0,0,0-2-3.39C48,121.17,47.36,126.4,50.27,127.33Z"/><path class="cls-9" d="M49.72,125.56a.5.5,0,0,0,.61-.51.87.87,0,0,0-.51-.86C49.13,124,49,125.32,49.72,125.56Z"/><path class="cls-8" d="M73.13,119.39a2,2,0,0,0,2.38-2,3.49,3.49,0,0,0-2-3.4C70.82,113.24,70.22,118.47,73.13,119.39Z"/><path class="cls-9" d="M72.58,117.62a.5.5,0,0,0,.61-.51.87.87,0,0,0-.51-.86C72,116.05,71.84,117.39,72.58,117.62Z"/><path class="cls-8" d="M62.37,130.37c1.09,1.25,2.92,1.48,2.88-.61s2.07-2,2.52.06c.52,2.43-.8,4.55-2.57,4.74s-3.41-1.38-3.72-3.69c-.08-.62.5-1,.89-.5Z"/></g></g></svg>