<svg xmlns="http://www.w3.org/2000/svg" viewBox="0 0 479.29 825.95"><defs><style>.cls-1{fill:#609345;}.cls-1,.cls-10,.cls-2,.cls-4,.cls-5,.cls-6,.cls-7,.cls-8,.cls-9{fill-rule:evenodd;}.cls-2{fill:#a5c14e;}.cls-3{opacity:0.2;}.cls-10,.cls-4,.cls-9{fill:#ede962;}.cls-4,.cls-9{stroke:#37812f;stroke-miterlimit:10;}.cls-4{stroke-width:2px;}.cls-5{fill:#a96f36;}.cls-6{fill:#f26a5b;}.cls-7{fill:#f7a29a;}.cls-8{fill:#90ac3d;opacity:0.6;}</style></defs><g id="Layer_2" data-name="Layer 2"><g id="Layer_1-2" data-name="Layer 1"><path class="cls-1" d="M266.93,698.44a80.74,80.74,0,0,1,1.75-9.9c3.81-15.35,12-28.47,20.9-41.24l6.61-9.87c4.65-5.81,8.76-12,12.91-18.18,11.35-16.88,21.19-34.74,33.17-51.2,9.57-13.15,20-25.61,32.72-35.8,10.18-8.15,21.47-14.24,34.84-15.52,12.94-1.25,23.63,3.18,32.54,12.4,7.85,8.11,13,17.83,17.29,28.15A198.83,198.83,0,0,1,470.36,593a375.51,375.51,0,0,1,7,53.35c.88,13.67,1.39,27.34,1,41,0,.13.2.26.31.39.71,3.23,1,6.44-.51,9.55-.22,4.79-.39,9.59-.7,14.37s-.73,9.61-1.19,14.4c-.19,2-.56,4-.88,5.91-.92,5.51-1.46,11.12-3.17,16.47a78.48,78.48,0,0,1-19,32c-2,2.07-4.1,4.13-6.15,6.2a22.82,22.82,0,0,1-9.21,7.08,119.68,119.68,0,0,1-25.54,12.67c-14.14,4.81-28.63,7.38-43.66,6.64a112.39,112.39,0,0,1-21.61-2.87,91.29,91.29,0,0,1-37.15-18.31,81.26,81.26,0,0,1-17.5-19.94c-2.59-4.19-5.33-8.29-7.81-12.55-7-12-12.92-24.56-16-38.24A77.22,77.22,0,0,1,266.93,698.44Z"/><path class="cls-2" d="M362.17,575.14a5.93,5.93,0,0,1-3.38,3.9,1.36,1.36,0,0,1-1.8-.69,5.6,5.6,0,0,1,.57-5c.89-1.54,1.9-2.77,3.65-2.09S362.44,573.56,362.17,575.14Z"/><path class="cls-2" d="M333.85,634.52c-.24.42-.55,1-.91,1.63-.87,1.42-1.84,3.37-3.75,2.2-1.7-1-1.08-3.11-.5-4.77a5.67,5.67,0,0,1,1.09-1.46c.8-1,1.69-2,3.08-1.31S334.06,633,333.85,634.52Z"/><path class="cls-2" d="M364,616.1c.14-1.29,1.35-2.48,3.06-3.2a1.55,1.55,0,0,1,2.05.68c.94,1.68.32,3.19-.64,4.64,0,.07,0,.17-.08.24-.82,1.31-1.91,2.69-3.48,2.16C363.12,620,363.64,618.22,364,616.1Z"/><path class="cls-2" d="M361.86,589.94A5.68,5.68,0,0,1,363,588c.79-1,1.8-2.33,3.21-1.38a3.05,3.05,0,0,1,1,3.78,9.28,9.28,0,0,1-.94,1.86c-.83,1.28-1.75,2.63-3.55,1.93S361.63,591.92,361.86,589.94Z"/><path class="cls-2" d="M344.28,619.35c.66-1.64,1.45-3.24,3.49-3.8a1.48,1.48,0,0,1,1.78.77c1,1.79.22,3.38-.78,4.87-.82,1.24-1.69,2.8-3.49,2C343.7,622.47,344.09,620.86,344.28,619.35Z"/><path class="cls-2" d="M352.43,633.84a5.65,5.65,0,0,1,1.21-3.17c.88-.95,2.09-1.79,3.19-1.22,1.36.71,1.28,2.31.86,3.71a9.8,9.8,0,0,1-.61,1.42c-.72,1.59-1.62,3.13-3.67,2.45S352.38,634.63,352.43,633.84Z"/><path class="cls-2" d="M340.67,607.35a20.77,20.77,0,0,1-1.15,2.09c-.84,1.21-1.78,2.78-3.5,1.81-1.51-.85-1.07-2.59-.75-4a7.22,7.22,0,0,1,1.13-2c.76-1.21,1.94-2,3.27-1.51S340.85,605.82,340.67,607.35Z"/><path class="cls-2" d="M349.81,593.34a4.3,4.3,0,0,1-1,2.12c-.92,1.23-1.88,3-3.66,2-1.6-.9-1.13-2.75-.68-4.27a4.69,4.69,0,0,1,1-1.81c.88-1,1.93-2,3.37-1.27C350.14,590.76,350,592.11,349.81,593.34Z"/><path class="cls-2" d="M380.27,581.26a6.17,6.17,0,0,1-.55,1.75c-.88,1.31-2,2.86-3.72,2.26s-1-2.32-.71-3.63a9.11,9.11,0,0,1,.76-2.49,2.64,2.64,0,0,1,3.27-1.52C381,578.29,380.66,579.85,380.27,581.26Z"/><path class="cls-2" d="M373,603.34c.46-2,1.34-3.54,3.08-4.23a1.76,1.76,0,0,1,2.09.75c1,1.76.16,3.39-.71,4.88-.76,1.3-1.82,2.55-3.6,1.77S372.89,604.33,373,603.34Z"/><path class="cls-2" d="M362.1,605.49c-.26,2.1-.84,3.41-2.2,4.31-1.79,1.18-2.86.78-3-1.29a6.77,6.77,0,0,1,2.31-5.63,2,2,0,0,1,2.44-.12C363.18,603.62,362.12,604.92,362.1,605.49Z"/><path class="cls-2" d="M378,628.5c-.05,1.42-1,2.47-1.88,3.53a1.67,1.67,0,0,1-2.09.55,1.89,1.89,0,0,1-1.27-1.81,7.56,7.56,0,0,1,1-4c.78-1.14,1.85-2.48,3.35-1.95C378.8,625.42,378.43,627,378,628.5Z"/><path class="cls-2" d="M370.62,569a4.68,4.68,0,0,1,3.06-3.82,1.28,1.28,0,0,1,1.75.68c1,1.67.16,3.3-.48,4.71-.51,1.13-1.24,2.84-2.94,2.48C369.66,572.51,370.17,570.68,370.62,569Z"/><path class="cls-2" d="M385.77,616.18c.33-2.19,1-3.82,3-4.36a1.62,1.62,0,0,1,2,.77,5.5,5.5,0,0,1-1,5.18c-.79,1.09-1.61,2.16-3.23,1.45C384.62,618.41,385.73,617,385.77,616.18Z"/><path class="cls-2" d="M395.61,571c.4-2.07,1.31-3.55,3.26-3.43,1.34.07,1.65,1.42,1.23,2.63-.59,1.7-1.24,3.75-3.46,3.52C395,573.6,395.53,571.94,395.61,571Z"/><path class="cls-2" d="M377.8,551.78c.48-1.43,1.07-3.23,3.11-3,1.13.15,1.53,1.56,1.26,2.8-.42,1.94-2.44,3.85-3.61,3.42C376.81,554.41,377.64,553.09,377.8,551.78Z"/><path class="cls-2" d="M350.93,581.44c-.64,1.13-.92,3.15-3.13,2.8-1.71-.26-1.46-1.75-1.15-2.94.45-1.71,1.34-3.23,3.4-2.9C351.72,578.66,351.23,580,350.93,581.44Z"/><path class="cls-2" d="M326.63,618.71c-.43,1.63-1.2,3.43-3.11,3.17s-.82-2-.68-3.21c.22-1.88,1.32-3.27,3.22-2.9C327.61,616.06,326.74,617.6,326.63,618.71Z"/><path class="cls-1" d="M333.59,100.85a36,36,0,0,1-2.86-3.06c-4.14-5.1-6.45-11.11-8.47-17.26-.54-1.55-1.08-3.11-1.63-4.66-.76-3-1.8-5.92-2.81-8.84-2.77-8-6.24-15.73-8.72-23.83a75.77,75.77,0,0,1-3.71-19.82c-.16-5.43.63-10.7,3.55-15.47A15.9,15.9,0,0,1,321.2.2a36.57,36.57,0,0,1,13.68,1.3,81.4,81.4,0,0,1,14.55,5.38,156.34,156.34,0,0,1,19.49,11c4.76,3.12,9.43,6.38,13.88,9.94,0,0,.14,0,.21,0a5.82,5.82,0,0,1,3.05,2.56c1.53,1.27,3.08,2.52,4.6,3.82s3,2.65,4.48,4c.61.56,1.18,1.18,1.75,1.77a48.74,48.74,0,0,1,4.68,5.17,32.63,32.63,0,0,1,5.87,14.31c.18,1.2.35,2.39.52,3.59a9.53,9.53,0,0,1,.06,4.83,50.11,50.11,0,0,1-2.18,11.66,48.53,48.53,0,0,1-8.72,16.17,46.72,46.72,0,0,1-6.35,6.46,38.07,38.07,0,0,1-15.38,7.77,34,34,0,0,1-11,.83c-2-.19-4.09-.31-6.13-.55A56.52,56.52,0,0,1,341.55,106,32.08,32.08,0,0,1,333.59,100.85Z"/><path class="cls-2" d="M316.44,38.36a2.5,2.5,0,0,1,.45,2.1.56.56,0,0,1-.68.42,2.33,2.33,0,0,1-1.52-1.43c-.29-.68-.44-1.33.22-1.74S316,37.88,316.44,38.36Z"/><path class="cls-2" d="M330.5,48a1.91,1.91,0,0,1-.3-1.82.64.64,0,0,1,.74-.51c.8.11,1.14.69,1.38,1.37l.07.09c.23.6.41,1.31-.16,1.7S331.12,48.64,330.5,48Z"/><path class="cls-2" d="M321.28,42.17a2.29,2.29,0,0,1-.36-.87c-.14-.51-.32-1.18.34-1.41a1.28,1.28,0,0,1,1.51.62,4.68,4.68,0,0,1,.38.78c.21.59.43,1.24-.25,1.66S321.87,42.74,321.28,42.17Z"/><path class="cls-2" d="M326.65,55.36a2.26,2.26,0,0,1-.39-2.11.61.61,0,0,1,.7-.39c.86.09,1.18.76,1.43,1.47s.5,1.26-.21,1.66S327.11,55.8,326.65,55.36Z"/><path class="cls-2" d="M333.51,56.28a2.37,2.37,0,0,1-.76-1.2c-.09-.53-.07-1.14.4-1.36s1.08.15,1.45.64c.12.17.21.37.32.56.34.63.63,1.32-.11,1.83S333.76,56.49,333.51,56.28Z"/><path class="cls-2" d="M321.76,53.56a7.19,7.19,0,0,1,.41.91c.19.58.47,1.28-.27,1.61s-1.13-.29-1.52-.75a3.08,3.08,0,0,1-.4-.88A1.15,1.15,0,0,1,320.3,53C320.87,52.64,321.3,53.12,321.76,53.56Z"/><path class="cls-2" d="M319.39,47a1.71,1.71,0,0,1,.45.86c.19.61.52,1.37-.25,1.71s-1.2-.31-1.59-.84a2.1,2.1,0,0,1-.36-.79c-.1-.54-.19-1.15.43-1.44S319,46.66,319.39,47Z"/><path class="cls-2" d="M323,33.88a2.77,2.77,0,0,1,.44.61c.21.63.46,1.38-.18,1.81s-1-.25-1.39-.67a4.44,4.44,0,0,1-.63-.88,1.1,1.1,0,0,1,.31-1.47C322.19,32.89,322.62,33.39,323,33.88Z"/><path class="cls-2" d="M328.51,41.83a2.19,2.19,0,0,1-.64-2.08.73.73,0,0,1,.77-.51c.83.12,1.17.8,1.44,1.46s.4,1.24-.31,1.64S328.81,42.1,328.51,41.83Z"/><path class="cls-2" d="M326.5,46a2.2,2.2,0,0,1,.88,1.8c-.05.89-.45,1.15-1.18.69a2.82,2.82,0,0,1-1.3-2.17.82.82,0,0,1,.57-.85C326.15,45.15,326.32,45.83,326.5,46Z"/><path class="cls-2" d="M338.12,46.45a2.49,2.49,0,0,1,.71,1.51.71.71,0,0,1-.34.83.81.81,0,0,1-.93,0,3.14,3.14,0,0,1-1.06-1.34c-.19-.54-.36-1.23.18-1.6S337.74,45.93,338.12,46.45Z"/><path class="cls-2" d="M316.49,34a2,2,0,0,1-.5-2,.53.53,0,0,1,.66-.41c.8.09,1.14.77,1.45,1.34s.63,1.12.08,1.6C317.43,35.21,317,34.59,316.49,34Z"/><path class="cls-2" d="M336,40.78c-.65-.66-1-1.28-.72-2.06.12-.3.41-.61.77-.5a2.3,2.3,0,0,1,1.46,1.64c.17.54.32,1.08-.32,1.45S336.24,41,336,40.78Z"/><path class="cls-2" d="M323.44,26.22c-.6-.65-.86-1.32-.33-1.94.36-.43.89-.19,1.18.25.42.62.94,1.35.31,2C324.13,27.07,323.71,26.47,323.44,26.22Z"/><path class="cls-2" d="M312.58,27.33c-.35-.52-.81-1.17-.21-1.78.34-.33.9-.12,1.25.28.54.63.67,1.77.23,2.06C313.21,28.31,313,27.71,312.58,27.33Z"/><path class="cls-2" d="M315.72,43.67c.21.5.81,1.09.15,1.74s-1,.05-1.27-.35c-.46-.58-.74-1.25-.11-1.86S315.33,43.22,315.72,43.67Z"/><g class="cls-3"><path class="cls-1" d="M236.47,577a25,25,0,0,1,.48-2.72c1.05-4.21,3.29-7.81,5.71-11.32.6-.91,1.2-1.81,1.81-2.71,1.27-1.6,2.39-3.3,3.52-5,3.1-4.63,5.79-9.54,9.05-14.06a50,50,0,0,1,8.93-9.84,17.83,17.83,0,0,1,9.49-4.28,10.34,10.34,0,0,1,8.85,3.39,24.19,24.19,0,0,1,4.69,7.71,55.11,55.11,0,0,1,2.9,9.8,102.71,102.71,0,0,1,1.88,14.63c.24,3.75.37,7.5.25,11.26,0,0,.06.07.09.1a3.87,3.87,0,0,1-.15,2.62c-.06,1.32-.11,2.63-.2,3.95s-.2,2.63-.33,4c-.05.54-.15,1.08-.24,1.62a31.63,31.63,0,0,1-.87,4.52,21.88,21.88,0,0,1-5.18,8.78l-1.68,1.7a6.31,6.31,0,0,1-2.51,1.95,33.1,33.1,0,0,1-7,3.49,31.68,31.68,0,0,1-11.89,1.84,30.55,30.55,0,0,1-5.88-.77,24.62,24.62,0,0,1-10.1-5,21.93,21.93,0,0,1-4.75-5.46c-.71-1.15-1.45-2.27-2.12-3.44a37.17,37.17,0,0,1-4.34-10.48A21.3,21.3,0,0,1,236.47,577Z"/><path class="cls-2" d="M262.46,543.14a1.68,1.68,0,0,1-.92,1.07.37.37,0,0,1-.49-.19,1.53,1.53,0,0,1,.16-1.37c.24-.43.51-.76,1-.58S262.53,542.7,262.46,543.14Z"/><path class="cls-2" d="M262.93,554.37a1.24,1.24,0,0,1,.84-.88.42.42,0,0,1,.56.18,1.18,1.18,0,0,1-.18,1.28s0,0,0,.06c-.22.36-.52.74-.95.6S262.84,555,262.93,554.37Z"/><path class="cls-2" d="M262.37,547.19a1.47,1.47,0,0,1,.31-.53c.21-.28.49-.64.87-.38a.85.85,0,0,1,.27,1,3.06,3.06,0,0,1-.26.51c-.23.35-.48.72-1,.53S262.3,547.74,262.37,547.19Z"/><path class="cls-2" d="M257.57,555.27a1.46,1.46,0,0,1,.95-1,.39.39,0,0,1,.48.21,1.19,1.19,0,0,1-.21,1.33c-.23.35-.47.77-1,.55S257.51,555.68,257.57,555.27Z"/><path class="cls-2" d="M259.77,559.24a1.6,1.6,0,0,1,.34-.87c.24-.26.57-.49.86-.34s.35.64.24,1a2.71,2.71,0,0,1-.17.39c-.19.44-.44.86-1,.68S259.76,559.46,259.77,559.24Z"/><path class="cls-2" d="M256.59,552c-.09.16-.18.38-.31.58s-.49.76-1,.49-.29-.71-.2-1.09a1.73,1.73,0,0,1,.31-.56.75.75,0,0,1,.89-.42C256.72,551.14,256.64,551.56,256.59,552Z"/><path class="cls-2" d="M259.08,548.13a1.18,1.18,0,0,1-.27.59c-.25.33-.51.81-1,.54s-.3-.76-.18-1.17a1.35,1.35,0,0,1,.27-.5c.24-.27.53-.56.93-.35S259.13,547.8,259.08,548.13Z"/><path class="cls-2" d="M267.38,544.8a1.8,1.8,0,0,1-.15.48c-.24.36-.54.79-1,.63s-.27-.64-.2-1a2.56,2.56,0,0,1,.21-.68.71.71,0,0,1,.89-.42C267.58,544,267.49,544.42,267.38,544.8Z"/><path class="cls-2" d="M265.38,550.86a1.48,1.48,0,0,1,.84-1.16.49.49,0,0,1,.57.21,1.29,1.29,0,0,1-.2,1.33c-.21.36-.49.71-1,.5S265.36,551.13,265.38,550.86Z"/><path class="cls-2" d="M262.42,551.46a1.45,1.45,0,0,1-.6,1.18c-.49.33-.78.22-.82-.35a1.83,1.83,0,0,1,.63-1.54.52.52,0,0,1,.66,0C262.72,551,262.43,551.3,262.42,551.46Z"/><path class="cls-2" d="M266.73,557.76a1.59,1.59,0,0,1-.51,1,.44.44,0,0,1-.57.15.5.5,0,0,1-.34-.49,2,2,0,0,1,.28-1.1c.21-.31.5-.68.91-.53S266.86,557.36,266.73,557.76Z"/><path class="cls-2" d="M264.76,541.43a1.28,1.28,0,0,1,.84-1,.34.34,0,0,1,.47.19,1.35,1.35,0,0,1-.13,1.29c-.14.31-.34.78-.8.68C264.5,542.41,264.64,541.91,264.76,541.43Z"/><path class="cls-2" d="M268.86,554.38c.09-.6.27-1,.8-1.2.21,0,.48,0,.56.21a1.5,1.5,0,0,1-.29,1.42c-.21.3-.44.6-.88.41S268.85,554.61,268.86,554.38Z"/><path class="cls-2" d="M271.56,542c.11-.57.36-1,.89-.94.37,0,.45.39.34.72s-.35,1-1,1C271.39,542.69,271.54,542.24,271.56,542Z"/><path class="cls-2" d="M266.72,536.72c.14-.39.29-.89.85-.81.31,0,.42.42.34.76-.11.53-.66,1.06-1,.94C266.45,537.44,266.68,537.08,266.72,536.72Z"/><path class="cls-2" d="M259.39,544.87c-.17.31-.25.86-.85.77s-.4-.48-.31-.81.37-.88.93-.8S259.48,544.48,259.39,544.87Z"/></g><path class="cls-4" d="M405.31,462.65a34.69,34.69,0,0,1-4.95,5.32,32.64,32.64,0,0,1-8.91,6A33.27,33.27,0,0,1,381,476.74a36.87,36.87,0,0,1-11.95-.82,45.33,45.33,0,0,1-6.22-2,34,34,0,0,1-4.55-2.09,43.33,43.33,0,0,1-12.34-10.15,39.91,39.91,0,0,1-5.29-8.5,7,7,0,0,0-.77-1.72,8.73,8.73,0,0,1-1.18-4.23,39.9,39.9,0,0,1-.56-7.09,30.46,30.46,0,0,1,1.81-9,52.33,52.33,0,0,1,3.36-7.57,87.34,87.34,0,0,1,4.67-7.77c.42-.6.76-1.27,1.15-1.91a8.81,8.81,0,0,1,2.54-3.8c2.46-3.48,4.87-7,7.4-10.41,1.65-2.23,3.22-4.51,4.81-6.78,1.14-1.64,2.14-3.38,3.21-5.07,1.23-1.95,2.45-3.91,3.71-5.84a71.17,71.17,0,0,1,4.52-6.37,26,26,0,0,1,8.45-7.21c4.66-2.3,9.44-2.3,14.25-1.29,2.8.6,5.34,1.7,7,4.28a17.69,17.69,0,0,1,2.34,6.3c1.14,5.91,1.32,12,2.09,17.93.57,4.48,1.36,8.91,2.24,13.33a122.21,122.21,0,0,1,2.68,21.37,1.08,1.08,0,0,0,.15.66,19.13,19.13,0,0,1-.07,5.5c-.2,1.62-.41,3.26-.58,4.89a50.18,50.18,0,0,1-2,9.27,43.3,43.3,0,0,1-2.7,6c-.39.8-.77,1.61-1.16,2.41A7.1,7.1,0,0,1,405.31,462.65Z"/><path class="cls-5" d="M370.79,452.13c-3.85-1.95-6.47-4.66-7.63-8.59a16.15,16.15,0,0,1,.45-9.83,16.55,16.55,0,0,1,5.45-8.06,14.53,14.53,0,0,1,12.18-2.9,15.3,15.3,0,0,1,9.33,5.27,14.13,14.13,0,0,1,3,7.81,19,19,0,0,1-1.25,8.53,16.74,16.74,0,0,1-5.08,7.21,10.26,10.26,0,0,1-6.27,2.31A21.84,21.84,0,0,1,370.79,452.13Z"/><path class="cls-6" d="M397.47,312.31c-7,.37-11.32-3.14-14.22-8.15-3.12-5.37-2.72-11.16.62-16.4,3.95-6.18,14.57-5.15,19.24-1a20.65,20.65,0,0,1,6.6,11.7C411.23,306.38,405.71,312.31,397.47,312.31Z"/><path class="cls-6" d="M404.11,234.1c5.15,0,9.72,4.26,11.24,10.37,1.4,5.64.8,7.36-3.16,9.14-2.67,1.21-5.16.43-7.55-.69-5.14-2.42-8.3-8.56-7.23-13.88A6.61,6.61,0,0,1,404.11,234.1Z"/><path class="cls-7" d="M367.32,201.34c-1.19-6.16,4.41-11.7,9.89-12,7.42-.34,15,8.22,15.09,16.74.06,5-6.08,10.16-12,10.12C373.44,216.2,367.32,209.16,367.32,201.34Z"/><path class="cls-8" d="M361.47,510.32c2.67-2.67,5.8-3.27,8.49-2.12,2.4,1,4.86,5.61,4.27,8.61s-1.27,6.06-4.15,7.6c-4,2.14-9.95-.36-10.83-6.06C358.77,515.29,359.15,512.33,361.47,510.32Z"/><path class="cls-8" d="M383.88,504.05c-2.2,2.18-5.05,2-7.46-.44a6.9,6.9,0,0,1,.18-9.83,5.31,5.31,0,0,1,7.58-.13C387.1,496.59,387,501,383.88,504.05Z"/><path class="cls-8" d="M416.28,486.08a35.43,35.43,0,0,0-5.32-6.45c-1.33-1.16-2.75-2.38-4.63-1.61s-2.17,2.62-2.29,4.52c-.28,4.45,2.18,7.79,4.36,11.26,2.5,4,5.71,7.43,8.55,11.15,1,1.28,1.55.21,2-.43a55.15,55.15,0,0,0,4.44-8.86,44.34,44.34,0,0,0,2.71-10.16,11.21,11.21,0,0,0-.72-5.55c-.38-1.09-.71-2.51-2.28-2.57a4.4,4.4,0,0,0-3.78,1.81A15.23,15.23,0,0,0,416.28,486.08Z"/><path class="cls-1" d="M321.39,352.24a12.7,12.7,0,0,1,.4-1.75,21,21,0,0,1,4.3-7.12l1.34-1.68c.94-1,1.77-2,2.61-3.09,2.31-2.87,4.32-5.94,6.75-8.73a31.59,31.59,0,0,1,6.55-6,12.77,12.77,0,0,1,6.86-2.3,8,8,0,0,1,6.23,2.68,16.54,16.54,0,0,1,3.18,5.3,34.9,34.9,0,0,1,1.86,6.56,64.52,64.52,0,0,1,1,9.68,72.85,72.85,0,0,1-.06,7.39l.06.07a2.35,2.35,0,0,1-.15,1.71c-.08.86-.14,1.72-.22,2.57s-.2,1.72-.32,2.57c-.05.36-.14.71-.21,1.05a19.42,19.42,0,0,1-.71,2.92,13.16,13.16,0,0,1-3.88,5.47l-1.23,1a4.21,4.21,0,0,1-1.83,1.15,22.91,22.91,0,0,1-5,1.91,24,24,0,0,1-8.5.59,24.41,24.41,0,0,1-4.17-.82,19.17,19.17,0,0,1-7.1-3.81,16.25,16.25,0,0,1-3.27-3.82c-.47-.79-1-1.57-1.44-2.37a24.69,24.69,0,0,1-2.87-7.09A13.15,13.15,0,0,1,321.39,352.24Z"/><path class="cls-2" d="M340.6,331.42a1,1,0,0,1-.68.66.28.28,0,0,1-.34-.15.92.92,0,0,1,.14-.89c.18-.27.38-.47.72-.33S340.66,331.14,340.6,331.42Z"/><path class="cls-2" d="M340.71,338.81c0-.24.28-.43.61-.54a.34.34,0,0,1,.4.15.7.7,0,0,1-.16.83l0,0c-.16.22-.38.46-.68.34S340.63,339.18,340.71,338.81Z"/><path class="cls-2" d="M340.45,334.08a1.11,1.11,0,0,1,.23-.34c.16-.17.37-.39.64-.2a.54.54,0,0,1,.16.7,1.61,1.61,0,0,1-.19.31c-.17.22-.36.45-.7.3S340.4,334.43,340.45,334.08Z"/><path class="cls-2" d="M336.86,339.11a1,1,0,0,1,.7-.63.3.3,0,0,1,.34.16c.2.34,0,.61-.18.87s-.34.48-.68.31S336.82,339.38,336.86,339.11Z"/><path class="cls-2" d="M338.36,341.83a.91.91,0,0,1,.25-.55c.18-.16.42-.3.63-.18s.23.44.14.68a1.92,1.92,0,0,1-.12.25c-.15.27-.34.54-.73.39S338.34,342,338.36,341.83Z"/><path class="cls-2" d="M336.24,336.91c-.07.1-.14.24-.24.36s-.36.47-.69.27-.19-.48-.12-.73a1.46,1.46,0,0,1,.23-.34.54.54,0,0,1,.65-.23C336.35,336.37,336.28,336.64,336.24,336.91Z"/><path class="cls-2" d="M338.1,334.52a.69.69,0,0,1-.21.36c-.19.21-.38.51-.72.31s-.2-.51-.11-.78a.81.81,0,0,1,.21-.31c.17-.16.38-.34.66-.18S338.13,334.3,338.1,334.52Z"/><path class="cls-2" d="M344.07,332.77a1,1,0,0,1-.11.31c-.18.22-.4.49-.74.35s-.18-.42-.11-.66a1.17,1.17,0,0,1,.16-.44.5.5,0,0,1,.64-.22C344.24,332.25,344.16,332.53,344.07,332.77Z"/><path class="cls-2" d="M342.52,336.64a.92.92,0,0,1,.63-.72.37.37,0,0,1,.4.16.79.79,0,0,1-.17.87c-.16.22-.37.43-.71.27S342.5,336.81,342.52,336.64Z"/><path class="cls-2" d="M340.4,336.87a.91.91,0,0,1-.45.75c-.35.18-.56.1-.58-.28a1.15,1.15,0,0,1,.48-1,.41.41,0,0,1,.48,0C340.63,336.55,340.41,336.77,340.4,336.87Z"/><path class="cls-2" d="M343.35,341.23a1,1,0,0,1-.39.61.35.35,0,0,1-.41.07.38.38,0,0,1-.24-.35,1.25,1.25,0,0,1,.23-.7c.16-.19.37-.42.66-.3S343.44,341,343.35,341.23Z"/><path class="cls-2" d="M342.28,330.43a.8.8,0,0,1,.61-.65.27.27,0,0,1,.34.15.81.81,0,0,1-.12.84c-.11.2-.26.49-.59.41S342.18,330.73,342.28,330.43Z"/><path class="cls-2" d="M344.93,339.12c.08-.39.21-.67.59-.74.15,0,.35,0,.4.17a.93.93,0,0,1-.23.91c-.16.19-.33.37-.64.22S344.92,339.27,344.93,339.12Z"/><path class="cls-2" d="M347.11,331.15c.09-.37.28-.62.65-.57s.31.28.23.49-.27.66-.7.59S347.09,331.31,347.11,331.15Z"/><path class="cls-2" d="M343.77,327.44c.11-.25.23-.56.62-.48.22,0,.29.3.23.52s-.49.65-.72.56S343.73,327.68,343.77,327.44Z"/><path class="cls-2" d="M338.38,332.4c-.13.19-.19.55-.62.46s-.27-.34-.2-.55.28-.56.67-.47S338.45,332.15,338.38,332.4Z"/><path class="cls-8" d="M377.83,137.4c4.7-4.71,10.22-5.77,15-3.74,4.25,1.81,8.58,9.89,7.53,15.18s-2.22,10.7-7.31,13.4c-7.12,3.79-17.55-.62-19.11-10.67C373.06,146.16,373.74,141,377.83,137.4Z"/><path class="cls-8" d="M422.34,128.05c-3,3-7,2.79-10.34-.62-3.49-3.57-3.87-9.29.25-13.63a7.34,7.34,0,0,1,10.5-.18C426.8,117.69,426.63,123.81,422.34,128.05Z"/><path class="cls-8" d="M411.74,42.88c-2.19-4.34-2.08-8.19-.24-10.68,1.65-2.24,7.05-2.81,10.08-.67s6.1,4.39,7,8.41c1.31,5.64-2.71,11.14-8.93,9.38C416.35,48.37,413.32,46.49,411.74,42.88Z"/><path class="cls-8" d="M412.08,11.6c1.4,2.8.73,5.29-1.75,6.5s-6.06-.07-8.11-3.92c-1.45-2.73-.78-5.8,1.29-6.83C406.48,5.87,410.11,7.67,412.08,11.6Z"/><path class="cls-1" d="M154,764.65a37.41,37.41,0,0,1,1.76-4.06c3.2-6.16,8-10.92,13.16-15.47l3.84-3.54c2.58-2,5-4.23,7.38-6.44,6.57-6,12.61-12.67,19.42-18.48a79.76,79.76,0,0,1,17.65-11.93c5.19-2.44,10.64-3.89,16.48-3.06a16.74,16.74,0,0,1,12.63,8.63,38.82,38.82,0,0,1,4.5,13.81,86.92,86.92,0,0,1,.91,16.35A164.27,164.27,0,0,1,249.24,764c-1,5.93-2.21,11.82-3.78,17.64,0,0,.06.13.09.2a6.11,6.11,0,0,1-1.2,4c-.59,2-1.15,4.06-1.77,6.07s-1.3,4-2,6c-.28.82-.64,1.64-1,2.43a50.09,50.09,0,0,1-3,6.72,34.58,34.58,0,0,1-11.39,11.71l-3.27,2a10.08,10.08,0,0,1-4.66,2.09A53.52,53.52,0,0,1,205,825.69a51.36,51.36,0,0,1-19.34-1.64,49,49,0,0,1-8.93-3.44,40.22,40.22,0,0,1-14-11.64,35.87,35.87,0,0,1-5.43-10.31c-.68-2.06-1.43-4.09-2.05-6.16a59.42,59.42,0,0,1-2.91-18A33.74,33.74,0,0,1,154,764.65Z"/><path class="cls-2" d="M207.31,721.74a2.6,2.6,0,0,1-1.84,1.32.6.6,0,0,1-.7-.49,2.47,2.47,0,0,1,.76-2.07c.54-.57,1.1-1,1.77-.52S207.59,721.09,207.31,721.74Z"/><path class="cls-2" d="M203.89,739.43a2,2,0,0,1,1.64-1.06.68.68,0,0,1,.81.5,1.84,1.84,0,0,1-.75,1.92l-.06.09c-.48.48-1.09,1-1.71.57S203.53,740.29,203.89,739.43Z"/><path class="cls-2" d="M205.67,728a2.35,2.35,0,0,1,.68-.71c.44-.36,1-.81,1.52-.26a1.35,1.35,0,0,1,0,1.71,4.52,4.52,0,0,1-.6.7c-.48.46-1,.95-1.71.46S205.37,728.85,205.67,728Z"/><path class="cls-2" d="M195.14,738.79a2.36,2.36,0,0,1,1.88-1.27.66.66,0,0,1,.68.52c.26.87-.25,1.46-.83,2s-1,1-1.7.49S194.9,739.41,195.14,738.79Z"/><path class="cls-2" d="M197.13,745.82a2.49,2.49,0,0,1,.85-1.24c.47-.31,1.07-.54,1.48-.19s.31,1.12,0,1.68a5,5,0,0,1-.4.54c-.48.61-1,1.17-1.82.67S197,746.15,197.13,745.82Z"/><path class="cls-2" d="M194.83,733.29a9.5,9.5,0,0,1-.71.78c-.48.43-1.05,1-1.68.41s-.19-1.21.09-1.78a3.09,3.09,0,0,1,.69-.76,1.2,1.2,0,0,1,1.55-.31C195.35,732,195.06,732.66,194.83,733.29Z"/><path class="cls-2" d="M200.17,728.24a1.82,1.82,0,0,1-.65.8c-.51.44-1.1,1.08-1.76.47s-.2-1.29.14-1.89a2.21,2.21,0,0,1,.62-.67c.48-.33,1-.67,1.57-.2S200.36,727.74,200.17,728.24Z"/><path class="cls-2" d="M214.42,726.21a2.8,2.8,0,0,1-.41.69c-.52.47-1.14,1-1.82.58s-.2-1.09.06-1.62a4.25,4.25,0,0,1,.59-1,1.15,1.15,0,0,1,1.55-.31C215.05,725,214.73,725.64,214.42,726.21Z"/><path class="cls-2" d="M209,734.89a2.32,2.32,0,0,1,1.74-1.49.77.77,0,0,1,.82.53,2,2,0,0,1-.8,2c-.46.49-1,.91-1.73.39S208.9,735.3,209,734.89Z"/><path class="cls-2" d="M204.17,734.7a2.37,2.37,0,0,1-1.38,1.61c-.89.32-1.3,0-1.16-.86a3,3,0,0,1,1.55-2.17.86.86,0,0,1,1.07.2C204.82,734,204.24,734.46,204.17,734.7Z"/><path class="cls-2" d="M208.6,746.16a2.63,2.63,0,0,1-1.16,1.31.73.73,0,0,1-.95,0,.83.83,0,0,1-.36-.91A3.21,3.21,0,0,1,207,745c.44-.41,1-.87,1.62-.49S208.94,745.57,208.6,746.16Z"/><path class="cls-2" d="M211.56,720a2.07,2.07,0,0,1,1.7-1.32.57.57,0,0,1,.68.47,2.12,2.12,0,0,1-.69,2c-.33.43-.82,1.09-1.51.76C210.79,721.38,211.19,720.65,211.56,720Z"/><path class="cls-2" d="M213.19,741.69c.37-.9.81-1.53,1.7-1.56.34,0,.76.15.8.54a2.39,2.39,0,0,1-1,2.1c-.46.39-.92.76-1.54.3S213.09,742,213.19,741.69Z"/><path class="cls-2" d="M222,723.41c.38-.84.92-1.38,1.74-1.13.57.17.56.78.26,1.25-.43.67-.92,1.48-1.85,1.15C221.5,724.44,221.9,723.79,222,723.41Z"/><path class="cls-2" d="M216.39,713.36c.35-.56.78-1.27,1.63-1,.47.18.5.83.25,1.33-.38.78-1.43,1.39-1.89,1.09C215.69,714.38,216.18,713.9,216.39,713.36Z"/><path class="cls-2" d="M201.87,723.27c-.39.42-.71,1.25-1.63.88-.7-.29-.44-.9-.19-1.38.37-.68.91-1.23,1.75-.89C202.49,722.17,202.14,722.71,201.87,723.27Z"/><path class="cls-9" d="M100.38,726.83a14.58,14.58,0,0,0,.87,2.89,13.53,13.53,0,0,0,2.22,3.85,13.82,13.82,0,0,0,3.37,3,15.69,15.69,0,0,0,4.61,1.89,18.52,18.52,0,0,0,2.67.41,14.46,14.46,0,0,0,2.08.06,18.14,18.14,0,0,0,6.46-1.51,16.76,16.76,0,0,0,3.53-2.19,2.39,2.39,0,0,1,.6-.5,3.72,3.72,0,0,0,1.22-1.36,17,17,0,0,0,1.51-2.54,12.44,12.44,0,0,0,1-3.67,20.73,20.73,0,0,0,.14-3.43,36,36,0,0,0-.31-3.75c0-.31,0-.62-.08-.92a3.69,3.69,0,0,0-.24-1.89c-.28-1.74-.53-3.49-.84-5.23-.21-1.14-.37-2.27-.55-3.41-.12-.82-.18-1.65-.26-2.48s-.2-1.9-.31-2.85a30.9,30.9,0,0,0-.51-3.2,11,11,0,0,0-1.82-4.24,8.89,8.89,0,0,0-5.07-3.1,4.24,4.24,0,0,0-3.39.31,7.38,7.38,0,0,0-2,1.92c-1.51,2-2.69,4.21-4.07,6.29-1,1.56-2.15,3.07-3.29,4.55a51.71,51.71,0,0,0-4.92,7.46c0,.09-.09.18-.18.22a8.13,8.13,0,0,0-1,2.06c-.23.64-.45,1.29-.68,1.93a20.14,20.14,0,0,0-1,3.82,17.76,17.76,0,0,0-.09,2.73c0,.37,0,.74,0,1.11A3,3,0,0,0,100.38,726.83Z"/><path class="cls-5" d="M115.17,731.25a5.76,5.76,0,0,0,4.42-1.79,7.53,7.53,0,0,0,1.08-7.75,6,6,0,0,0-4-3.32,6.41,6.41,0,0,0-4.44.25,5.86,5.86,0,0,0-2.55,2.36,7.89,7.89,0,0,0-1.1,3.41,7,7,0,0,0,.57,3.61,4.19,4.19,0,0,0,1.91,2A9.06,9.06,0,0,0,115.17,731.25Z"/><path class="cls-10" d="M195.43,695.37a5.91,5.91,0,0,0,.8.86,5.57,5.57,0,0,0,1.44,1,5.23,5.23,0,0,0,1.69.45,6,6,0,0,0,1.93-.13,7.26,7.26,0,0,0,1-.32,6,6,0,0,0,.73-.33,7,7,0,0,0,2-1.64,6.48,6.48,0,0,0,.85-1.38,1,1,0,0,1,.13-.27,1.49,1.49,0,0,0,.19-.69,7.2,7.2,0,0,0,.09-1.14,4.81,4.81,0,0,0-.3-1.45,7.81,7.81,0,0,0-.54-1.22,14.43,14.43,0,0,0-.75-1.26,3,3,0,0,1-.19-.3,1.38,1.38,0,0,0-.41-.62c-.39-.56-.78-1.13-1.19-1.68-.27-.36-.52-.73-.78-1.09s-.35-.55-.52-.82-.39-.63-.6-.94a9.54,9.54,0,0,0-.73-1,4.14,4.14,0,0,0-1.36-1.17,3.39,3.39,0,0,0-2.3-.2,1.63,1.63,0,0,0-1.13.69,3,3,0,0,0-.37,1c-.19,1-.22,1.93-.34,2.9-.09.72-.22,1.44-.36,2.15a19.86,19.86,0,0,0-.44,3.45.22.22,0,0,1,0,.11,2.89,2.89,0,0,0,0,.88c0,.27.07.53.1.79a7.71,7.71,0,0,0,.32,1.5,8.47,8.47,0,0,0,.44,1l.19.38A1.11,1.11,0,0,0,195.43,695.37Z"/><path class="cls-5" d="M201,693.67a2.24,2.24,0,0,0,1.24-1.39,2.63,2.63,0,0,0-.08-1.59,2.66,2.66,0,0,0-.88-1.3,2.37,2.37,0,0,0-2-.47,2.49,2.49,0,0,0-1.51.86,2.17,2.17,0,0,0-.48,1.26,2.94,2.94,0,0,0,.2,1.37,2.69,2.69,0,0,0,.82,1.17,1.65,1.65,0,0,0,1,.37A3.53,3.53,0,0,0,201,693.67Z"/><path class="cls-7" d="M199.59,690.8a4.62,4.62,0,0,0-.62-.52c-.2-.12-.4-.23-.6-.06a.63.63,0,0,0-.06.72,4.07,4.07,0,0,0,1.06,1.27c.24.21.49.41.74.61.08.06.15.08.18-.05a4.84,4.84,0,0,0,.23-2.5,1,1,0,0,0-.16-.37c-.16-.24-.36-.23-.53,0A1.62,1.62,0,0,0,199.59,690.8Z"/><path class="cls-8" d="M123.75,762.15c-2-2.31-4.56-3-6.8-2.16-2,.72-4.25,4.33-3.91,6.8s.72,5,3,6.4c3.18,1.95,8.12.21,9.13-4.39C125.71,766.33,125.54,763.9,123.75,762.15Z"/><path class="cls-8" d="M103.46,756.56c1.32,1.49,3.15,1.49,4.79,0a4.43,4.43,0,0,0,.27-6.3,3.39,3.39,0,0,0-4.84-.38A4.57,4.57,0,0,0,103.46,756.56Z"/><path class="cls-8" d="M71.57,752.7a31.82,31.82,0,0,1,3.24-6.89c1-1.39,2-2.85,4.06-3s2.9,1,3.6,2.38c1.63,3.15.23,6.6-.84,10-1.24,3.93-3.33,7.75-5,11.64-.57,1.33-1.45.78-2.07.48a40.3,40.3,0,0,1-7-4.69,28.23,28.23,0,0,1-5.74-6.35,6.8,6.8,0,0,1-1-4.35c0-1-.07-2.13,1.45-2.82a5.34,5.34,0,0,1,4.25-.2A10.84,10.84,0,0,1,71.57,752.7Z"/><path class="cls-6" d="M105.53,812.64c-7,.37-11.33-3.14-14.23-8.15-3.12-5.37-2.72-11.16.63-16.39,3.95-6.19,14.56-5.16,19.23-1a20.65,20.65,0,0,1,6.6,11.7C119.28,806.72,113.76,812.64,105.53,812.64Z"/><path class="cls-6" d="M6.91,740.73c5.15,0,9.72,4.26,11.24,10.38,1.4,5.63.8,7.35-3.16,9.13-2.67,1.21-5.16.43-7.55-.69C2.3,757.13-.86,751,.21,745.67A6.61,6.61,0,0,1,6.91,740.73Z"/></g></g></svg>