<svg xmlns="http://www.w3.org/2000/svg" viewBox="0 0 78.54 112.36"><defs><style>.cls-1{fill:#ede962;stroke:#37812f;stroke-miterlimit:10;stroke-width:2px;}.cls-1,.cls-2{fill-rule:evenodd;}.cls-2{fill:#a96f36;}</style></defs><g id="Layer_2" data-name="Layer 2"><g id="Layer_1-2" data-name="Layer 1"><path class="cls-1" d="M68.2,97.1a35.17,35.17,0,0,1-4.94,5.33,32.81,32.81,0,0,1-8.92,5.95,33.23,33.23,0,0,1-10.45,2.82,36.91,36.91,0,0,1-12-.83,44.36,44.36,0,0,1-6.22-2,36,36,0,0,1-4.54-2.09A43.53,43.53,0,0,1,8.82,96.18a39.69,39.69,0,0,1-5.28-8.51A7.4,7.4,0,0,0,2.76,86a8.71,8.71,0,0,1-1.17-4.22A40,40,0,0,1,1,74.64a30.41,30.41,0,0,1,1.82-9A51.26,51.26,0,0,1,6.2,58.1a85.84,85.84,0,0,1,4.66-7.77c.43-.61.77-1.27,1.15-1.91a8.84,8.84,0,0,1,2.54-3.81c2.46-3.47,4.87-7,7.4-10.41,1.65-2.23,3.22-4.51,4.81-6.77C27.91,25.79,28.91,24,30,22.35q1.83-2.93,3.7-5.84a73.1,73.1,0,0,1,4.52-6.36,26,26,0,0,1,8.45-7.21C51.32.63,56.09.63,60.9,1.65c2.81.59,5.34,1.69,7,4.27a17.93,17.93,0,0,1,2.34,6.31c1.13,5.9,1.32,12,2.08,17.93.58,4.48,1.36,8.91,2.25,13.32a123.28,123.28,0,0,1,2.67,21.37,1.17,1.17,0,0,0,.15.67A18.72,18.72,0,0,1,77.3,71c-.19,1.63-.4,3.26-.58,4.89a49.8,49.8,0,0,1-2,9.27,42.82,42.82,0,0,1-2.71,6c-.39.8-.77,1.61-1.15,2.42A7.09,7.09,0,0,1,68.2,97.1Z"/><path class="cls-2" d="M33.68,86.58c-3.85-2-6.46-4.65-7.63-8.59a16.16,16.16,0,0,1,.45-9.83,16.52,16.52,0,0,1,5.45-8A14.52,14.52,0,0,1,44.14,57.2a15.37,15.37,0,0,1,9.32,5.28,14,14,0,0,1,3,7.8,18.89,18.89,0,0,1-1.25,8.54A16.86,16.86,0,0,1,50.12,86a10.3,10.3,0,0,1-6.26,2.31A21.88,21.88,0,0,1,33.68,86.58Z"/></g></g></svg>