<svg xmlns="http://www.w3.org/2000/svg" viewBox="0 0 483.67 835.98"><defs><style>.cls-1{fill:#609345;}.cls-1,.cls-2,.cls-3,.cls-4,.cls-5,.cls-6,.cls-7,.cls-8,.cls-9{fill-rule:evenodd;}.cls-2{fill:#a5c14e;}.cls-3{fill:#f7a29a;}.cls-4,.cls-6,.cls-7{fill:#ede962;}.cls-4,.cls-6{stroke:#37812f;stroke-miterlimit:10;}.cls-4{stroke-width:2px;}.cls-5{fill:#a96f36;}.cls-8{fill:#90ac3d;opacity:0.6;}.cls-9{fill:#f26a5b;}.cls-10{opacity:0.5;}</style></defs><g id="Layer_2" data-name="Layer 2"><g id="Layer_1-2" data-name="Layer 1"><path class="cls-1" d="M32.29,78.57A34.52,34.52,0,0,1,33,74.29c1.65-6.63,5.19-12.29,9-17.81l2.85-4.26c2-2.51,3.79-5.19,5.58-7.85,4.9-7.29,9.15-15,14.32-22.12A78.93,78.93,0,0,1,79,6.79c4.4-3.52,9.28-6.15,15-6.7a16.46,16.46,0,0,1,14.06,5.36,38,38,0,0,1,7.46,12.15A86.12,86.12,0,0,1,120.15,33a163.83,163.83,0,0,1,3,23c.38,5.9.6,11.81.42,17.73,0,0,.09.11.14.17a6,6,0,0,1-.22,4.12c-.1,2.07-.17,4.14-.3,6.21s-.32,4.15-.52,6.22c-.08.85-.24,1.71-.38,2.55a50.39,50.39,0,0,1-1.36,7.11A34,34,0,0,1,112.76,114l-2.66,2.68a9.88,9.88,0,0,1-4,3.06,52.08,52.08,0,0,1-11,5.47,50.29,50.29,0,0,1-18.85,2.86,48.78,48.78,0,0,1-9.33-1.23,39.63,39.63,0,0,1-16-7.91,35.36,35.36,0,0,1-7.56-8.62c-1.11-1.81-2.3-3.58-3.37-5.41A58.65,58.65,0,0,1,33,88.37,33.28,33.28,0,0,1,32.29,78.57Z"/><path class="cls-2" d="M73.42,25.32A2.59,2.59,0,0,1,72,27a.58.58,0,0,1-.78-.3,2.4,2.4,0,0,1,.25-2.15c.38-.67.82-1.2,1.58-.91S73.53,24.64,73.42,25.32Z"/><path class="cls-2" d="M74.21,43a2,2,0,0,1,1.32-1.38.67.67,0,0,1,.89.29,1.82,1.82,0,0,1-.28,2s0,.08,0,.11c-.35.56-.82,1.16-1.5.93S74.06,43.92,74.21,43Z"/><path class="cls-2" d="M73.29,31.71a2.41,2.41,0,0,1,.49-.84c.34-.44.78-1,1.39-.59a1.32,1.32,0,0,1,.42,1.63,4.64,4.64,0,0,1-.41.8c-.36.56-.75,1.14-1.53.84S73.19,32.56,73.29,31.71Z"/><path class="cls-2" d="M65.69,44.41a2.34,2.34,0,0,1,1.51-1.64.64.64,0,0,1,.77.33,1.86,1.86,0,0,1-.34,2.11c-.35.53-.73,1.2-1.5.86S65.61,45.06,65.69,44.41Z"/><path class="cls-2" d="M69.21,50.67a2.49,2.49,0,0,1,.53-1.37c.38-.41.9-.77,1.37-.53s.55,1,.38,1.61a4.72,4.72,0,0,1-.27.61c-.31.68-.7,1.35-1.58,1.06S69.19,51,69.21,50.67Z"/><path class="cls-2" d="M64.13,39.23a7.53,7.53,0,0,1-.49.9c-.36.52-.77,1.2-1.51.78s-.46-1.11-.33-1.72a3,3,0,0,1,.49-.88,1.17,1.17,0,0,1,1.41-.65C64.34,37.91,64.21,38.57,64.13,39.23Z"/><path class="cls-2" d="M68.08,33.18a1.79,1.79,0,0,1-.43.91c-.4.53-.81,1.29-1.58.85s-.49-1.18-.29-1.84a2,2,0,0,1,.43-.78c.38-.43.83-.88,1.46-.55S68.15,32.65,68.08,33.18Z"/><path class="cls-2" d="M81.24,28a3,3,0,0,1-.24.75c-.38.57-.85,1.24-1.61,1s-.43-1-.31-1.57a3.93,3.93,0,0,1,.34-1.07,1.13,1.13,0,0,1,1.41-.66C81.56,26.68,81.4,27.35,81.24,28Z"/><path class="cls-2" d="M78.08,37.5a2.3,2.3,0,0,1,1.33-1.83.76.76,0,0,1,.9.32A2,2,0,0,1,80,38.1c-.33.56-.79,1.1-1.56.77S78.05,37.92,78.08,37.5Z"/><path class="cls-2" d="M73.39,38.43a2.34,2.34,0,0,1-1,1.86c-.77.5-1.23.33-1.31-.56a2.9,2.9,0,0,1,1-2.43.85.85,0,0,1,1.06,0C73.86,37.61,73.4,38.18,73.39,38.43Z"/><path class="cls-2" d="M80.25,48.36a2.59,2.59,0,0,1-.81,1.53.71.71,0,0,1-.9.23.82.82,0,0,1-.55-.78,3.22,3.22,0,0,1,.44-1.72c.33-.49.8-1.07,1.45-.84S80.44,47.73,80.25,48.36Z"/><path class="cls-2" d="M77.07,22.64A2,2,0,0,1,78.39,21a.56.56,0,0,1,.76.3,2.07,2.07,0,0,1-.21,2c-.22.49-.54,1.23-1.27,1.07C76.66,24.18,76.87,23.39,77.07,22.64Z"/><path class="cls-2" d="M83.62,43c.14-.94.41-1.65,1.26-1.88a.7.7,0,0,1,.89.33,2.38,2.38,0,0,1-.45,2.24c-.34.47-.7.93-1.4.63S83.6,43.4,83.62,43Z"/><path class="cls-2" d="M87.87,23.55c.16-.9.56-1.54,1.4-1.49.58,0,.71.62.53,1.14-.25.74-.54,1.62-1.49,1.52C87.6,24.65,87.83,23.93,87.87,23.55Z"/><path class="cls-2" d="M80.17,15.23c.21-.62.46-1.4,1.34-1.28.49.07.66.67.55,1.21-.19.83-1,1.66-1.56,1.48C79.74,16.36,80.1,15.79,80.17,15.23Z"/><path class="cls-2" d="M68.56,28c-.27.48-.39,1.36-1.35,1.21-.74-.12-.63-.76-.49-1.27.19-.74.58-1.4,1.47-1.26C68.91,26.84,68.7,27.43,68.56,28Z"/><path class="cls-3" d="M153.06,95.49c1.62-2.13,2.92-4.45,4.84-6.23.12-.11.23-.24.35-.36,1.61-1.63,3.65-2.37,4.81-1.65,1.41.87,2.53,3.39,2.16,5.81-.9,5.94-4.34,10.42-7.61,15-1.71,2.41-3.63,4.65-5.4,7-.67.88-1.07.69-1.54-.12a53.5,53.5,0,0,1-6.95-18.37c-.49-3-.58-5.87.91-8.6,1-1.77,1.71-2,3.44-1.06C150.27,88.16,152.22,91.47,153.06,95.49Z"/><path class="cls-2" d="M159.36,494.43c.1.18.23.44.39.68.37.6.77,1.43,1.58.93s.46-1.31.21-2a2.23,2.23,0,0,0-.46-.61c-.34-.42-.71-.85-1.3-.56S159.28,493.77,159.36,494.43Z"/><path class="cls-1" d="M160.17,492.93a36,36,0,0,0-1.26-5c-2.61-7.71-7.77-14.41-13.32-21L141.45,462c-2.89-3-5.46-6.17-8.06-9.33-7.1-8.64-13.34-17.73-20.81-26.19A111.7,111.7,0,0,0,92.4,407.91c-6.21-4.28-13-7.57-21-8.51-7.69-.92-13.9,1-19,5.4-4.45,3.85-7.25,8.55-9.57,13.58a80.83,80.83,0,0,0-5.5,17.48,152.59,152.59,0,0,0-2.93,26.33,182.08,182.08,0,0,0,.37,20.35c0,.07-.12.12-.18.19a6,6,0,0,0,.52,4.75c.25,2.38.46,4.77.75,7.15s.66,4.79,1,7.18c.16,1,.42,2,.66,2.95A52.82,52.82,0,0,0,39.87,513a43.13,43.13,0,0,0,12,16.31l3.78,3.22a15.2,15.2,0,0,0,5.61,3.74,84.7,84.7,0,0,0,41.38,11.18,75.54,75.54,0,0,0,12.72-.92,53.65,53.65,0,0,0,21.55-8.23,38.32,38.32,0,0,0,9.9-9.49c1.43-2,3-4,4.32-6.05,3.87-5.82,7.08-11.9,8.58-18.62A31.75,31.75,0,0,0,160.17,492.93Z"/><path class="cls-2" d="M101,429.51a3.61,3.61,0,0,0,2.09,2,.84.84,0,0,0,1.06-.3,2.48,2.48,0,0,0-.46-2.49c-.56-.79-1.19-1.42-2.21-1.13S100.78,428.71,101,429.51Z"/><path class="cls-2" d="M100.84,449.8c-.11-.65-.86-1.27-1.88-1.66a1,1,0,0,0-1.2.29c-.52.81-.11,1.57.49,2.31a.69.69,0,0,0,0,.13c.51.66,1.19,1.38,2.11,1.15S101.1,450.86,100.84,449.8Z"/><path class="cls-2" d="M101.5,436.86a3.07,3.07,0,0,0-.73-1c-.48-.52-1.11-1.2-1.92-.76a1.31,1.31,0,0,0-.49,1.86,4.68,4.68,0,0,0,.6.94c.52.66,1.09,1.35,2.15,1S101.68,437.85,101.5,436.86Z"/><path class="cls-2" d="M112.58,451.87a3.28,3.28,0,0,0-2.15-2,.87.87,0,0,0-1,.34c-.58.86-.06,1.67.57,2.44s1.06,1.43,2.11,1.07S112.73,452.62,112.58,451.87Z"/><path class="cls-2" d="M108.1,458.87a2.81,2.81,0,0,0-.79-1.6c-.55-.49-1.28-.94-1.92-.68-.79.32-.7,1.12-.42,1.82a5,5,0,0,0,.39.72c.46.81,1,1.59,2.23,1.3S108.14,459.27,108.1,458.87Z"/><path class="cls-2" d="M114.44,446a9.77,9.77,0,0,0,.73,1.07c.52.62,1.12,1.42,2.11,1s.57-1.26.35-2a3.73,3.73,0,0,0-.71-1,1.87,1.87,0,0,0-2-.83C114.09,444.46,114.3,445.23,114.44,446Z"/><path class="cls-2" d="M108.71,438.82a2.2,2.2,0,0,0,.64,1.08c.57.63,1.18,1.52,2.21,1.06s.6-1.33.3-2.1a2.57,2.57,0,0,0-.63-.92c-.55-.51-1.19-1.06-2-.71S108.58,438.21,108.71,438.82Z"/><path class="cls-2" d="M90.41,432.12a3.26,3.26,0,0,0,.36.88c.56.68,1.24,1.47,2.26,1.21s.54-1.12.34-1.78a4.45,4.45,0,0,0-.51-1.26,1.81,1.81,0,0,0-2-.83C89.9,430.63,90.15,431.41,90.41,432.12Z"/><path class="cls-2" d="M95.25,443.25a3.1,3.1,0,0,0-1.92-2.17,1.09,1.09,0,0,0-1.22.32c-.54.86,0,1.69.53,2.44a1.86,1.86,0,0,0,2.17,1C95.79,444.49,95.31,443.75,95.25,443.25Z"/><path class="cls-2" d="M101.72,444.57a2.82,2.82,0,0,0,1.4,2.19c1.09.63,1.71.46,1.77-.57a3.4,3.4,0,0,0-1.5-2.84,1.32,1.32,0,0,0-1.44-.12C101,443.62,101.7,444.29,101.72,444.57Z"/><path class="cls-2" d="M92.85,455.63a3.24,3.24,0,0,0,1.2,1.8,1.16,1.16,0,0,0,1.24.32.89.89,0,0,0,.72-.88,3.62,3.62,0,0,0-.7-2c-.49-.58-1.15-1.27-2-1S92.56,454.89,92.85,455.63Z"/><path class="cls-2" d="M95.83,426.23a2.73,2.73,0,0,0-1.9-2,.77.77,0,0,0-1,.29c-.55.81,0,1.64.4,2.35s.8,1.44,1.8,1.31C96.48,428,96.14,427.1,95.83,426.23Z"/><path class="cls-2" d="M88,449.33a2.5,2.5,0,0,0-1.84-2.23c-.44-.12-1-.08-1.19.33a2.53,2.53,0,0,0,.74,2.6c.49.56,1,1.11,1.94.8C88.7,450.47,88,449.74,88,449.33Z"/><path class="cls-2" d="M81.1,426.69c-.29-1-.86-1.79-2-1.78-.79,0-.94.67-.67,1.28.39.86.83,1.89,2.13,1.83C81.52,428,81.17,427.14,81.1,426.69Z"/><path class="cls-2" d="M91.19,417.54c-.32-.72-.71-1.63-1.91-1.54-.66.05-.87.74-.68,1.36.29,1,1.53,2,2.21,1.79C91.84,418.87,91.32,418.2,91.19,417.54Z"/><path class="cls-2" d="M107.77,432.89c.4.58.61,1.59,1.92,1.47,1-.1.82-.84.61-1.44a1.93,1.93,0,0,0-2.08-1.52C107.24,431.49,107.56,432.19,107.77,432.89Z"/><path class="cls-2" d="M162.41,487.76c.18.68.51,1.44,1.31,1.33s.35-.86.29-1.35c-.1-.79-.56-1.38-1.36-1.23S162.36,487.29,162.41,487.76Z"/><path class="cls-1" d="M72.05,317a18,18,0,0,1,.34-1.92,24.47,24.47,0,0,1,4.07-8l1.28-1.92c.9-1.13,1.7-2.33,2.51-3.53,2.2-3.28,4.11-6.75,6.44-9.95a35.54,35.54,0,0,1,6.35-7,12.76,12.76,0,0,1,6.77-3,7.41,7.41,0,0,1,6.32,2.41,17.16,17.16,0,0,1,3.36,5.47,38.46,38.46,0,0,1,2.08,6.94,73.84,73.84,0,0,1,1.37,10.36c.17,2.66.27,5.32.19,8,0,0,0,0,.06.07a2.71,2.71,0,0,1-.1,1.86c0,.93-.07,1.86-.13,2.79s-.14,1.87-.24,2.8a10.8,10.8,0,0,1-.17,1.14,21.51,21.51,0,0,1-.61,3.2,15.13,15.13,0,0,1-3.69,6.21l-1.2,1.21a4.36,4.36,0,0,1-1.78,1.37,22.78,22.78,0,0,1-5,2.46,22.41,22.41,0,0,1-8.48,1.29,21.3,21.3,0,0,1-4.2-.55,17.82,17.82,0,0,1-7.21-3.56,15.7,15.7,0,0,1-3.4-3.87c-.5-.82-1-1.61-1.52-2.44a26.38,26.38,0,0,1-3.11-7.43A15.53,15.53,0,0,1,72.05,317Z"/><path class="cls-2" d="M90.55,293a1.14,1.14,0,0,1-.65.76.26.26,0,0,1-.35-.14,1.09,1.09,0,0,1,.11-1c.17-.29.37-.53.71-.4S90.61,292.73,90.55,293Z"/><path class="cls-2" d="M90.91,301a.88.88,0,0,1,.59-.62.29.29,0,0,1,.4.13.81.81,0,0,1-.12.9s0,0,0,0c-.15.25-.37.52-.67.42S90.84,301.41,90.91,301Z"/><path class="cls-2" d="M90.5,295.92a1,1,0,0,1,.22-.38c.15-.2.35-.45.62-.27a.59.59,0,0,1,.19.74,2.42,2.42,0,0,1-.18.36c-.16.25-.34.51-.69.37S90.45,296.3,90.5,295.92Z"/><path class="cls-2" d="M87.08,301.63a1.05,1.05,0,0,1,.68-.74.28.28,0,0,1,.34.15A.84.84,0,0,1,88,302c-.16.24-.33.54-.67.38S87,301.92,87.08,301.63Z"/><path class="cls-2" d="M88.66,304.44a1,1,0,0,1,.24-.61c.17-.19.4-.35.62-.24s.25.45.17.72a2.36,2.36,0,0,1-.12.28c-.14.31-.32.6-.72.47S88.65,304.6,88.66,304.44Z"/><path class="cls-2" d="M86.38,299.3a4.16,4.16,0,0,1-.22.4c-.17.24-.35.54-.68.36s-.21-.51-.15-.78a1.44,1.44,0,0,1,.22-.4.53.53,0,0,1,.63-.29C86.47,298.7,86.41,299,86.38,299.3Z"/><path class="cls-2" d="M88.15,296.58A.81.81,0,0,1,88,297c-.18.24-.36.57-.71.38s-.22-.53-.13-.83a.86.86,0,0,1,.19-.35c.17-.19.38-.4.66-.25S88.19,296.34,88.15,296.58Z"/><path class="cls-2" d="M94.07,294.23a1,1,0,0,1-.11.34c-.17.25-.38.55-.72.44s-.19-.45-.14-.71a2.06,2.06,0,0,1,.15-.48.53.53,0,0,1,.64-.3C94.22,293.65,94.15,294,94.07,294.23Z"/><path class="cls-2" d="M92.65,298.52a1,1,0,0,1,.6-.82.33.33,0,0,1,.4.14.91.91,0,0,1-.13,1c-.15.25-.36.5-.7.35S92.64,298.71,92.65,298.52Z"/><path class="cls-2" d="M90.54,298.94a1,1,0,0,1-.43.83c-.34.23-.55.16-.59-.25a1.34,1.34,0,0,1,.45-1.09.39.39,0,0,1,.48,0C90.75,298.57,90.54,298.83,90.54,298.94Z"/><path class="cls-2" d="M93.63,303.41a1.13,1.13,0,0,1-.37.68.31.31,0,0,1-.4.11.36.36,0,0,1-.25-.35,1.51,1.51,0,0,1,.2-.78c.15-.22.36-.48.65-.38S93.71,303.12,93.63,303.41Z"/><path class="cls-2" d="M92.2,291.84a.89.89,0,0,1,.59-.74.25.25,0,0,1,.34.13,1,1,0,0,1-.09.91c-.1.22-.25.56-.58.49S92.11,292.17,92.2,291.84Z"/><path class="cls-2" d="M95.14,301c.07-.42.19-.74.57-.84a.31.31,0,0,1,.4.15,1,1,0,0,1-.2,1c-.16.21-.32.42-.63.29S95.13,301.17,95.14,301Z"/><path class="cls-2" d="M97.05,292.25c.08-.41.26-.69.63-.67s.32.28.24.51-.24.73-.67.68S97,292.42,97.05,292.25Z"/><path class="cls-2" d="M93.59,288.5c.1-.27.21-.63.6-.57.22,0,.3.3.25.54s-.47.75-.7.67S93.56,288.76,93.59,288.5Z"/><path class="cls-2" d="M88.37,294.26c-.12.22-.18.62-.61.55s-.28-.34-.22-.57.26-.63.66-.57S88.43,294,88.37,294.26Z"/><path class="cls-1" d="M351.27,764.49a37.25,37.25,0,0,0-1.76-4c-3.2-6.17-8.05-10.92-13.16-15.47l-3.84-3.54c-2.58-2-5-4.24-7.38-6.45-6.57-6-12.62-12.66-19.42-18.47a79.69,79.69,0,0,0-17.65-11.94c-5.19-2.43-10.64-3.88-16.48-3.05A16.74,16.74,0,0,0,259,710.15a38.64,38.64,0,0,0-4.5,13.8,87,87,0,0,0-.91,16.36A165.86,165.86,0,0,0,256,763.83c1,5.93,2.22,11.82,3.79,17.64,0,0-.06.12-.09.19a6.17,6.17,0,0,0,1.19,4c.59,2,1.15,4,1.78,6.07s1.29,4,2,6c.28.82.64,1.63,1,2.43a50,50,0,0,0,3,6.71,34.52,34.52,0,0,0,11.39,11.72l3.27,2a10,10,0,0,0,4.66,2.09,53.4,53.4,0,0,0,12.21,2.79,51.49,51.49,0,0,0,19.33-1.64,49.63,49.63,0,0,0,8.94-3.45,40.17,40.17,0,0,0,14-11.63,35.8,35.8,0,0,0,5.43-10.32c.67-2,1.42-4.08,2-6.16a59.36,59.36,0,0,0,2.91-18A33.86,33.86,0,0,0,351.27,764.49Z"/><path class="cls-2" d="M297.93,721.59a2.66,2.66,0,0,0,1.85,1.31.58.58,0,0,0,.69-.48,2.43,2.43,0,0,0-.75-2.07c-.54-.57-1.1-1-1.78-.52S297.66,720.93,297.93,721.59Z"/><path class="cls-2" d="M301.35,739.27a2,2,0,0,0-1.63-1.06.69.69,0,0,0-.81.51,1.83,1.83,0,0,0,.75,1.91.53.53,0,0,0,.06.1c.48.47,1.09.95,1.71.57S301.72,740.14,301.35,739.27Z"/><path class="cls-2" d="M299.58,727.87a2.29,2.29,0,0,0-.69-.7c-.43-.36-1-.81-1.51-.27a1.35,1.35,0,0,0,0,1.72,4.52,4.52,0,0,0,.6.7c.48.46,1,.94,1.71.46S299.88,728.69,299.58,727.87Z"/><path class="cls-2" d="M310.11,738.64a2.36,2.36,0,0,0-1.88-1.27.65.65,0,0,0-.68.51,1.89,1.89,0,0,0,.83,2c.48.45,1,1,1.69.5S310.35,739.26,310.11,738.64Z"/><path class="cls-2" d="M308.11,745.66a2.49,2.49,0,0,0-.84-1.23c-.47-.31-1.07-.55-1.48-.19s-.31,1.12,0,1.67a5.12,5.12,0,0,0,.4.55c.47.6,1,1.17,1.82.67S308.22,746,308.11,745.66Z"/><path class="cls-2" d="M310.42,733.14a8,8,0,0,0,.71.77c.48.43,1,1,1.68.42s.19-1.22-.09-1.78a3.09,3.09,0,0,0-.69-.76,1.19,1.19,0,0,0-1.55-.31C309.9,731.88,310.19,732.5,310.42,733.14Z"/><path class="cls-2" d="M305.08,728.09a1.82,1.82,0,0,0,.65.8c.51.44,1.1,1.08,1.76.47s.2-1.29-.15-1.89a2.21,2.21,0,0,0-.61-.68c-.48-.33-1-.67-1.58-.19S304.89,727.58,305.08,728.09Z"/><path class="cls-2" d="M290.83,726.06a2.8,2.8,0,0,0,.41.69c.51.47,1.13,1,1.82.58s.19-1.09-.06-1.63a4.4,4.4,0,0,0-.59-1,1.16,1.16,0,0,0-1.55-.32C290.2,724.86,290.52,725.49,290.83,726.06Z"/><path class="cls-2" d="M296.21,734.74a2.31,2.31,0,0,0-1.75-1.49.76.76,0,0,0-.81.53,2.05,2.05,0,0,0,.8,2c.46.48,1,.91,1.73.39S296.35,735.15,296.21,734.74Z"/><path class="cls-2" d="M301.08,734.54a2.37,2.37,0,0,0,1.38,1.62c.88.32,1.3,0,1.16-.87a3,3,0,0,0-1.56-2.16.85.85,0,0,0-1.06.2C300.42,733.85,301,734.3,301.08,734.54Z"/><path class="cls-2" d="M296.65,746a2.61,2.61,0,0,0,1.16,1.32.73.73,0,0,0,.95,0,.84.84,0,0,0,.36-.91,3.37,3.37,0,0,0-.85-1.6c-.44-.4-1-.86-1.63-.49S296.31,745.42,296.65,746Z"/><path class="cls-2" d="M293.69,719.8a2,2,0,0,0-1.7-1.31c-.37-.08-.58.14-.68.47a2.13,2.13,0,0,0,.69,2c.33.43.82,1.09,1.51.76C294.46,721.23,294.06,720.49,293.69,719.8Z"/><path class="cls-2" d="M292.06,741.54c-.37-.91-.81-1.53-1.7-1.57-.34,0-.76.15-.81.54a2.44,2.44,0,0,0,1,2.11c.45.39.91.76,1.53.29S292.16,741.89,292.06,741.54Z"/><path class="cls-2" d="M283.22,723.26c-.38-.85-.92-1.38-1.74-1.14-.57.18-.56.79-.26,1.26.43.67.92,1.47,1.85,1.15C283.75,724.29,283.35,723.63,283.22,723.26Z"/><path class="cls-2" d="M288.86,713.2c-.35-.56-.79-1.27-1.63-.94-.47.18-.5.82-.26,1.32.39.79,1.44,1.4,1.9,1.1C289.56,714.23,289.06,713.75,288.86,713.2Z"/><path class="cls-2" d="M303.38,723.12c.39.42.71,1.25,1.63.88.7-.29.44-.9.18-1.38-.36-.68-.9-1.24-1.75-.89C302.76,722,303.11,722.55,303.38,723.12Z"/><path class="cls-4" d="M101.43,221.59a28.18,28.18,0,0,1-.08,5.88,26.43,26.43,0,0,1-2.13,8.4,27.1,27.1,0,0,1-4.76,7.36,29.78,29.78,0,0,1-7.63,6A36.32,36.32,0,0,1,82,251.39a28.26,28.26,0,0,1-3.86,1.21,35,35,0,0,1-12.91.59,32.17,32.17,0,0,1-7.79-2.25,5.76,5.76,0,0,0-1.39-.61,7.12,7.12,0,0,1-3-1.9,32.48,32.48,0,0,1-4.17-4,24.35,24.35,0,0,1-3.77-6.37,41.22,41.22,0,0,1-2.08-6.37,70.24,70.24,0,0,1-1.41-7.19c-.07-.59-.22-1.18-.34-1.77a7.18,7.18,0,0,1-.54-3.66c-.4-3.42-.85-6.84-1.19-10.26-.21-2.23-.5-4.45-.78-6.68-.2-1.6-.54-3.19-.81-4.78-.32-1.84-.65-3.68-.94-5.52a57.31,57.31,0,0,1-.73-6.27,21.14,21.14,0,0,1,1.17-8.9c1.56-3.92,4.43-6.5,7.87-8.5a8.14,8.14,0,0,1,6.5-1.2,14.28,14.28,0,0,1,4.82,2.52c3.88,2.93,7.27,6.47,11,9.64,2.77,2.37,5.64,4.61,8.56,6.79a98.89,98.89,0,0,1,13.18,11.39.92.92,0,0,0,.45.31A15.32,15.32,0,0,1,92.77,201c.77,1.09,1.52,2.18,2.3,3.26a39.89,39.89,0,0,1,3.8,6.66,35.48,35.48,0,0,1,1.62,5.06c.19.69.4,1.38.61,2.08A5.74,5.74,0,0,1,101.43,221.59Z"/><path class="cls-5" d="M75,234a11.17,11.17,0,0,1-9.23-1,13,13,0,0,1-5-6.15,13.38,13.38,0,0,1-1.09-7.8,11.76,11.76,0,0,1,5.74-8.34,12.46,12.46,0,0,1,8.46-1.88,11.52,11.52,0,0,1,6,3.07,15.41,15.41,0,0,1,3.87,5.81,13.62,13.62,0,0,1,.85,7.08,8.3,8.3,0,0,1-2.52,4.78A17.61,17.61,0,0,1,75,234Z"/><path class="cls-6" d="M404.86,726.67a14.36,14.36,0,0,1-.86,2.89,13.72,13.72,0,0,1-2.22,3.86,13.89,13.89,0,0,1-3.38,3,15.52,15.52,0,0,1-4.6,1.89,20,20,0,0,1-2.67.41,14.5,14.5,0,0,1-2.08.06,18.14,18.14,0,0,1-6.46-1.51,16.8,16.8,0,0,1-3.53-2.2,3.19,3.19,0,0,0-.6-.5,3.61,3.61,0,0,1-1.22-1.35,17,17,0,0,1-1.51-2.54,12.52,12.52,0,0,1-1-3.67,20.85,20.85,0,0,1-.14-3.44,33.85,33.85,0,0,1,.31-3.75c0-.3.05-.61.07-.92a3.78,3.78,0,0,1,.25-1.88c.28-1.75.53-3.5.84-5.24.21-1.13.37-2.27.55-3.4.12-.82.18-1.65.26-2.48s.2-1.9.31-2.85a30.9,30.9,0,0,1,.51-3.2,10.93,10.93,0,0,1,1.82-4.24,8.81,8.81,0,0,1,5.07-3.1,4.21,4.21,0,0,1,3.38.31,7.41,7.41,0,0,1,2,1.92c1.51,2,2.69,4.21,4.07,6.29,1,1.56,2.14,3.07,3.28,4.55A49.9,49.9,0,0,1,402.3,713a.43.43,0,0,0,.18.22,8.13,8.13,0,0,1,1,2.06c.23.64.45,1.29.68,1.93a20.72,20.72,0,0,1,.95,3.82,19,19,0,0,1,.09,2.72c0,.37,0,.74,0,1.11A3,3,0,0,1,404.86,726.67Z"/><path class="cls-5" d="M390.08,731.1a5.77,5.77,0,0,1-4.42-1.8,6.67,6.67,0,0,1-1.63-3.74,6.87,6.87,0,0,1,.54-4,6.05,6.05,0,0,1,4-3.32,6.36,6.36,0,0,1,4.44.25,5.79,5.79,0,0,1,2.54,2.36,7.9,7.9,0,0,1,1.11,3.4,7,7,0,0,1-.57,3.62,4.24,4.24,0,0,1-1.91,2A9.06,9.06,0,0,1,390.08,731.1Z"/><path class="cls-4" d="M150.58,717.8a26.84,26.84,0,0,0,1.6,5.21,24.73,24.73,0,0,0,4.08,6.93,25,25,0,0,0,6.15,5.32,28.07,28.07,0,0,0,8.35,3.35,34.07,34.07,0,0,0,4.83.7,27.81,27.81,0,0,0,3.76.08A32.7,32.7,0,0,0,191,736.56a30.21,30.21,0,0,0,6.34-4,5.17,5.17,0,0,1,1.08-.91,6.58,6.58,0,0,0,2.18-2.47,30.72,30.72,0,0,0,2.7-4.61,23,23,0,0,0,1.7-6.66,39.08,39.08,0,0,0,.2-6.21,66.76,66.76,0,0,0-.61-6.77c-.1-.55-.11-1.11-.16-1.67a6.71,6.71,0,0,0-.47-3.4c-.53-3.15-1-6.31-1.61-9.45-.38-2-.7-4.09-1-6.14-.24-1.48-.35-3-.52-4.48-.19-1.72-.38-3.44-.6-5.16a53.43,53.43,0,0,0-1-5.77,19.63,19.63,0,0,0-3.36-7.63,16,16,0,0,0-9.21-5.53,7.57,7.57,0,0,0-6.11.62,13.39,13.39,0,0,0-3.63,3.49c-2.7,3.62-4.8,7.65-7.27,11.43-1.85,2.84-3.82,5.58-5.86,8.28A92.26,92.26,0,0,0,155,693.06a.78.78,0,0,1-.31.4A14.2,14.2,0,0,0,153,697.2c-.4,1.16-.79,2.33-1.2,3.49a37.38,37.38,0,0,0-1.65,6.93,31.08,31.08,0,0,0-.13,4.92c0,.67,0,1.34,0,2A5.37,5.37,0,0,0,150.58,717.8Z"/><path class="cls-5" d="M177.34,722a10.38,10.38,0,0,0,8-3.31,12.09,12.09,0,0,0,2.9-6.79,12.45,12.45,0,0,0-1-7.23,10.91,10.91,0,0,0-7.28-5.94,11.53,11.53,0,0,0-8,.52,10.7,10.7,0,0,0-4.57,4.3,14.24,14.24,0,0,0-1.94,6.18,12.69,12.69,0,0,0,1.08,6.53,7.74,7.74,0,0,0,3.48,3.6A16.37,16.37,0,0,0,177.34,722Z"/><path class="cls-3" d="M50.66,565.38A58.7,58.7,0,0,1,59,555.27a14.73,14.73,0,0,1,3.71-2.61c2.88-1.37,4.89-.74,6.55,2,2.07,3.34,1.77,6.77.72,10.33-2,6.74-6,12.38-10,17.93-3.25,4.47-7.14,8.47-10.5,12.87-1.62,2.12-2.37,1.34-3.32-.33a104.13,104.13,0,0,1-8.38-18.24,51.17,51.17,0,0,1-3.13-15.94,14.88,14.88,0,0,1,2.2-7.89c1.26-2.13,3-2.6,5.27-1.55,3.53,1.63,5.26,4.75,6.73,8.05C49.51,561.47,49.94,563.22,50.66,565.38Z"/><path class="cls-7" d="M309.82,695.21a5,5,0,0,1-.8.86,5.11,5.11,0,0,1-1.44,1,5.51,5.51,0,0,1-1.69.46,6.25,6.25,0,0,1-1.93-.13,7.26,7.26,0,0,1-1-.32,5.46,5.46,0,0,1-.74-.34,7,7,0,0,1-2-1.64,6.67,6.67,0,0,1-.85-1.37,1.43,1.43,0,0,0-.13-.28,1.45,1.45,0,0,1-.19-.68,6.26,6.26,0,0,1-.09-1.14,5.12,5.12,0,0,1,.29-1.45,8.4,8.4,0,0,1,.55-1.22,12.3,12.3,0,0,1,.75-1.26c.07-.1.12-.2.19-.31a1.32,1.32,0,0,1,.41-.61c.39-.56.78-1.13,1.19-1.68.27-.36.52-.73.78-1.1s.34-.54.52-.82l.59-.94c.23-.35.47-.7.73-1a4.24,4.24,0,0,1,1.37-1.16,3.45,3.45,0,0,1,2.3-.21,1.65,1.65,0,0,1,1.12.69,2.86,2.86,0,0,1,.38,1c.19,1,.22,1.93.34,2.89.09.73.22,1.44.36,2.16a18.93,18.93,0,0,1,.43,3.45.17.17,0,0,0,0,.1,3.32,3.32,0,0,1,0,.89c0,.26-.07.53-.1.79a7.73,7.73,0,0,1-.33,1.5,6.86,6.86,0,0,1-.43,1c-.07.13-.13.26-.19.39A1.16,1.16,0,0,1,309.82,695.21Z"/><path class="cls-5" d="M304.24,693.51a2.23,2.23,0,0,1-1.23-1.38,2.7,2.7,0,0,1,.07-1.59,2.8,2.8,0,0,1,.88-1.3,2.36,2.36,0,0,1,2-.47,2.51,2.51,0,0,1,1.51.85,2.3,2.3,0,0,1,.48,1.26,3,3,0,0,1-.2,1.38,2.68,2.68,0,0,1-.82,1.16,1.62,1.62,0,0,1-1,.38A3.6,3.6,0,0,1,304.24,693.51Z"/><path class="cls-3" d="M305.66,690.65a4.07,4.07,0,0,1,.62-.52c.19-.12.39-.23.6-.06a.61.61,0,0,1,.06.71,4,4,0,0,1-1.06,1.27c-.24.22-.49.41-.74.62-.08.06-.15.08-.18,0a4.84,4.84,0,0,1-.23-2.5,1,1,0,0,1,.16-.37c.16-.24.36-.23.53,0A1.66,1.66,0,0,1,305.66,690.65Z"/><path class="cls-8" d="M381.5,762c2-2.31,4.55-3,6.8-2.15,2,.72,4.24,4.33,3.91,6.8s-.72,5-3,6.4c-3.18,2-8.12.21-9.13-4.39C379.54,766.17,379.71,763.75,381.5,762Z"/><path class="cls-9" d="M42.32,615.42c0,4-1.89,5.82-6.18,5.7-7-.2-12.06-8.11-9.42-14.72,2-4.94,8.78-4.6,12.35-.2A13.29,13.29,0,0,1,42.32,615.42Z"/><path class="cls-8" d="M401.79,756.41c-1.32,1.48-3.15,1.49-4.79,0a4.42,4.42,0,0,1-.27-6.3,3.4,3.4,0,0,1,4.84-.39A4.58,4.58,0,0,1,401.79,756.41Z"/><path class="cls-9" d="M201.17,754.17a6,6,0,0,1-5.87-3.35,6.23,6.23,0,0,1,.26-6.77c1.63-2.55,6-2.13,7.93-.4a8.48,8.48,0,0,1,2.72,4.83C206.84,751.73,204.56,754.17,201.17,754.17Z"/><path class="cls-3" d="M150.62,762.19c-1.19-6.15,4.41-11.69,9.88-12,7.43-.34,15,8.22,15.1,16.74.05,5-6.08,10.16-12,10.12C156.74,777.06,150.62,770,150.62,762.19Z"/><path class="cls-8" d="M27.13,299.74C31.84,295,37.36,294,42.1,296c4.24,1.81,8.57,9.88,7.53,15.18s-2.23,10.7-7.32,13.4c-7.12,3.79-17.54-.62-19.11-10.67C22.36,308.5,23,303.29,27.13,299.74Z"/><path class="cls-8" d="M71.65,290.38c-3.06,3-7,2.8-10.35-.61-3.49-3.58-3.87-9.29.25-13.63A7.36,7.36,0,0,1,72.06,276C76.1,280,75.93,286.14,71.65,290.38Z"/><path class="cls-8" d="M52.42,349.27a45.66,45.66,0,0,0-6.32-8.51c-1.58-1.53-3.26-3.13-5.5-2.12s-2.57,3.45-2.71,6c-.33,5.87,2.59,10.28,5.17,14.86,3,5.26,6.78,9.8,10.16,14.71,1.16,1.68,1.83.28,2.34-.57a75.12,75.12,0,0,0,5.28-11.69,63,63,0,0,0,3.22-13.41,16.35,16.35,0,0,0-.85-7.31c-.46-1.44-.85-3.31-2.72-3.4a5,5,0,0,0-4.48,2.4A21.13,21.13,0,0,0,52.42,349.27Z"/><path class="cls-8" d="M433.68,752.55a32.07,32.07,0,0,0-3.24-6.89c-1-1.39-2-2.85-4.06-3s-2.91,1-3.6,2.38c-1.63,3.15-.24,6.6.84,10,1.23,3.94,3.33,7.76,5,11.64.57,1.34,1.45.79,2.06.49a40,40,0,0,0,7-4.69,28.44,28.44,0,0,0,5.74-6.35,6.86,6.86,0,0,0,1-4.35c0-1,.07-2.13-1.46-2.82a5.31,5.31,0,0,0-4.24-.2A10.84,10.84,0,0,0,433.68,752.55Z"/><path class="cls-9" d="M49.85,4.56a6.09,6.09,0,0,1,3,6.14,6.28,6.28,0,0,1-4.06,5.51C46,17.42,42.55,14.57,41.92,12a8.67,8.67,0,0,1,.47-5.58C43.72,3.38,47,2.63,49.85,4.56Z"/><path class="cls-9" d="M29.22,30c-1.77-1.21-2.36-3.74-1.45-6.21.85-2.27,1.46-2.72,3.24-2.41a3.59,3.59,0,0,1,2.44,2,5.52,5.52,0,0,1-.76,6.48A2.74,2.74,0,0,1,29.22,30Z"/><path class="cls-3" d="M34.22,49.89A4.46,4.46,0,0,1,28,51.69c-2.64-1.62-3.24-6.35-1.28-9.31,1.15-1.74,4.48-2.08,6.51-.67C35.59,43.33,36.05,47.19,34.22,49.89Z"/><g class="cls-10"><path class="cls-1" d="M193.7,524.64a15.19,15.19,0,0,1,1.24,1.42,24.1,24.1,0,0,1,3.59,7.93c.22.71.44,1.42.67,2.13.3,1.37.73,2.7,1.14,4,1.15,3.65,2.61,7.2,3.61,10.89a34.41,34.41,0,0,1,1.41,9,12.19,12.19,0,0,1-1.81,6.91,7,7,0,0,1-5.62,3.27,16.47,16.47,0,0,1-6.14-.82,36.88,36.88,0,0,1-6.47-2.67,71.29,71.29,0,0,1-8.63-5.3c-2.1-1.49-4.16-3-6.12-4.72h-.09a2.66,2.66,0,0,1-1.34-1.2l-2-1.81c-.66-.61-1.32-1.24-2-1.88-.27-.26-.52-.55-.76-.83a20.46,20.46,0,0,1-2-2.41A14.9,14.9,0,0,1,159.9,542l-.18-1.63a4.24,4.24,0,0,1,0-2.18,23.15,23.15,0,0,1,1.13-5.22,21.94,21.94,0,0,1,4.14-7.14,20.55,20.55,0,0,1,2.95-2.8,16.84,16.84,0,0,1,7-3.24,15.09,15.09,0,0,1,5-.19c.91.12,1.83.21,2.74.35a25.32,25.32,0,0,1,7.47,2.21A14.68,14.68,0,0,1,193.7,524.64Z"/><path class="cls-2" d="M200.59,553.11a1.15,1.15,0,0,1-.18-1,.25.25,0,0,1,.31-.18,1.06,1.06,0,0,1,.67.68c.12.31.18.6-.12.78S200.79,553.33,200.59,553.11Z"/><path class="cls-2" d="M194.38,548.52a.81.81,0,0,1,.11.82.28.28,0,0,1-.34.22c-.35-.06-.5-.33-.6-.64l0,0c-.09-.27-.17-.6.1-.76S194.11,548.22,194.38,548.52Z"/><path class="cls-2" d="M198.46,551.31a1,1,0,0,1,.15.39c.06.24.13.54-.18.63a.56.56,0,0,1-.66-.3,2.37,2.37,0,0,1-.17-.36c-.09-.27-.18-.56.14-.74S198.2,551,198.46,551.31Z"/><path class="cls-2" d="M196.21,545.27a1,1,0,0,1,.15,1,.27.27,0,0,1-.32.17c-.38-.06-.52-.37-.62-.69s-.21-.58.12-.74S196,545.06,196.21,545.27Z"/><path class="cls-2" d="M193.14,544.73a1,1,0,0,1,.32.56c0,.24,0,.51-.19.6s-.49-.08-.65-.31a2.1,2.1,0,0,1-.13-.26c-.15-.29-.27-.6.07-.82S193,544.63,193.14,544.73Z"/><path class="cls-2" d="M198.39,546.16a4.27,4.27,0,0,1-.17-.41c-.08-.27-.2-.59.15-.73s.5.15.67.37a1.29,1.29,0,0,1,.16.4.51.51,0,0,1-.16.66C198.78,546.59,198.59,546.37,198.39,546.16Z"/><path class="cls-2" d="M199.37,549.15a.83.83,0,0,1-.19-.4c-.07-.27-.22-.62.14-.76s.53.16.7.41a.89.89,0,0,1,.15.36c0,.24.07.52-.21.64S199.53,549.32,199.37,549.15Z"/><path class="cls-2" d="M197.57,555a2.4,2.4,0,0,1-.19-.29c-.09-.28-.18-.63.11-.81s.45.13.61.33a1.38,1.38,0,0,1,.28.4.51.51,0,0,1-.16.66C197.92,555.48,197.74,555.24,197.57,555Z"/><path class="cls-2" d="M195.2,551.34a1,1,0,0,1,.26.95.33.33,0,0,1-.35.21c-.38-.07-.52-.38-.63-.68s-.17-.57.16-.74S195.07,551.21,195.2,551.34Z"/><path class="cls-2" d="M196.16,549.5a1,1,0,0,1-.38-.83c0-.4.22-.51.55-.29a1.27,1.27,0,0,1,.55,1,.36.36,0,0,1-.27.37C196.3,549.88,196.24,549.57,196.16,549.5Z"/><path class="cls-2" d="M190.93,549.09a1.13,1.13,0,0,1-.29-.69.31.31,0,0,1,.16-.37.36.36,0,0,1,.42,0,1.49,1.49,0,0,1,.46.62c.07.24.14.56-.11.72S191.1,549.33,190.93,549.09Z"/><path class="cls-2" d="M200.5,555.07a.9.9,0,0,1,.21.9.25.25,0,0,1-.31.17c-.36,0-.5-.37-.63-.63s-.27-.51,0-.72S200.3,554.8,200.5,555.07Z"/><path class="cls-2" d="M191.82,551.68c.29.31.45.59.3.94-.06.14-.2.27-.35.21a1,1,0,0,1-.64-.76c-.07-.25-.13-.49.16-.65S191.71,551.58,191.82,551.68Z"/><path class="cls-2" d="M197.27,558.46c.26.3.37.61.13.88s-.41.07-.53-.13-.41-.63-.11-.92S197.15,558.34,197.27,558.46Z"/><path class="cls-2" d="M202.18,558.15c.15.24.34.54.06.8s-.4,0-.55-.15-.28-.81-.08-.93S202,558,202.18,558.15Z"/><path class="cls-2" d="M201,550.72c-.09-.22-.35-.5,0-.78s.43,0,.56.18.32.58,0,.84S201.15,550.94,201,550.72Z"/></g><path class="cls-3" d="M458.69,706.86c-1.18-6.16,4.42-11.7,9.89-12,7.43-.34,15,8.22,15.09,16.73.06,5-6.07,10.17-12,10.13C464.82,721.72,458.7,714.68,458.69,706.86Z"/><path class="cls-4" d="M129,787.13a61.57,61.57,0,0,1-4.33,12.07A57.78,57.78,0,0,1,114.36,815a58.52,58.52,0,0,1-15,11.82,65.64,65.64,0,0,1-20,6.95,79.73,79.73,0,0,1-11.44,1.13,63.33,63.33,0,0,1-8.83-.24A76.65,76.65,0,0,1,32,826.78a70.36,70.36,0,0,1-14.46-10.14,12.75,12.75,0,0,0-2.45-2.25,15.48,15.48,0,0,1-4.84-6c-2.11-3.61-4.35-7.13-5.82-11.12a53.81,53.81,0,0,1-3.28-15.81,91.31,91.31,0,0,1,.21-14.61A154.19,154.19,0,0,1,3.58,751c.27-1.27.37-2.59.54-3.89a15.7,15.7,0,0,1,1.49-7.94c1.58-7.34,3.06-14.71,4.79-22,1.13-4.75,2.1-9.54,3.11-14.32.72-3.46,1.14-7,1.7-10.46.64-4,1.27-8,2-12a127.41,127.41,0,0,1,2.92-13.46c1.85-6.41,4.36-12.47,8.71-17.56,6-7,13.72-10.28,22.24-12,5-1,9.83-1,14.27,2.1a31.42,31.42,0,0,1,8.16,8.6c5.94,8.8,10.43,18.5,15.81,27.65,4,6.87,8.38,13.51,12.88,20.07,7.15,10.43,13.86,21.17,19.15,32.81a2,2,0,0,0,.7,1,33.48,33.48,0,0,1,3.69,9c.81,2.78,1.6,5.57,2.45,8.34a88.28,88.28,0,0,1,3.12,16.45c.41,3.85-.05,7.71-.24,11.57-.08,1.58-.14,3.15-.2,4.73C130.82,782.24,130.64,784.87,129,787.13Z"/><path class="cls-5" d="M65.73,794c-7.6-.5-13.71-3.07-18.33-8.64-3.81-4.61-5.58-10.19-6.08-16.27a29.22,29.22,0,0,1,3.26-16.85,25.62,25.62,0,0,1,17.76-13.15,27.06,27.06,0,0,1,18.78,2.09,25,25,0,0,1,10.27,10.6,33.47,33.47,0,0,1,3.88,14.71A29.8,29.8,0,0,1,92,781.69a18.17,18.17,0,0,1-8.56,8.09A38.47,38.47,0,0,1,65.73,794Z"/></g></g></svg>