<svg xmlns="http://www.w3.org/2000/svg" viewBox="0 0 171.16 190.44"><defs><style>.cls-1{fill:#ede962;stroke:#37812f;stroke-miterlimit:10;stroke-width:3px;}.cls-1,.cls-2,.cls-3,.cls-4{fill-rule:evenodd;}.cls-2{fill:#323130;}.cls-3{fill:#fff;}.cls-4{fill:#f26a5b;}</style></defs><g id="Layer_2" data-name="Layer 2"><g id="Layer_1-2" data-name="Layer 1"><path class="cls-1" d="M136.07,153.72a57.09,57.09,0,0,1-5.79,10.51,52.82,52.82,0,0,1-11.93,13,53.93,53.93,0,0,1-15.68,8.51,60.77,60.77,0,0,1-19.57,3.17,73.8,73.8,0,0,1-10.8-.84,60.21,60.21,0,0,1-8.16-1.67,73.69,73.69,0,0,1-24-11.83,68.2,68.2,0,0,1-11.95-11.82,12.13,12.13,0,0,0-1.94-2.5,14.89,14.89,0,0,1-3.61-6.42,67.88,67.88,0,0,1-3.79-11.3,51,51,0,0,1-.71-15.25,83.26,83.26,0,0,1,2.33-13.55,143.19,143.19,0,0,1,4.34-14.37c.44-1.14.72-2.35,1.08-3.54a14.62,14.62,0,0,1,2.54-7.13c2.55-6.57,5-13.18,7.69-19.69,1.74-4.24,3.35-8.53,5-12.81,1.18-3.1,2.09-6.3,3.12-9.45,1.18-3.63,2.36-7.26,3.59-10.87a116.79,116.79,0,0,1,4.69-12C55.16,18.2,58.38,13,63.17,9c6.57-5.5,14.25-7.3,22.41-7.46,4.75-.1,9.27.73,13,4.31a30.36,30.36,0,0,1,6.33,9.35c4.22,9.16,7,18.93,10.63,28.32,2.75,7.06,5.8,14,9,20.8,5.12,10.88,9.78,22,13,33.68a1.94,1.94,0,0,0,.51,1,32,32,0,0,1,2.12,8.94c.35,2.73.67,5.45,1,8.17a83.55,83.55,0,0,1,.49,15.81c-.19,3.65-1.18,7.17-1.92,10.73-.3,1.45-.59,2.9-.88,4.36C138.45,149.47,137.9,151.89,136.07,153.72Z"/><path class="cls-2" d="M140,109.6a68.3,68.3,0,0,1-2.11-8.94c1.64.66,2.6,2.21,3.89,3.32,4.21,3.65,6,3.21,10.67.88,2.44-1.21,4.2-3.4,5.86-5.61a4.85,4.85,0,0,0,.54-4.11c-.38-1.89-1-3.72-1.21-5.66a2.36,2.36,0,0,1,.07-1.16c.26-.66.54-1.39,1.41-1.37s1.07.63,1.27,1.32a35.27,35.27,0,0,1,1,5.6,43.61,43.61,0,0,1,3.21-4.6,8.42,8.42,0,0,1,1-1.07c.37-.29.77-.78,1.31-.48s.14.9.08,1.34c-.39,2.55-1.84,4.53-3.58,6.53,2.21-.3,4.16-.58,6.11-.79.69-.08,1.59-.15,1.72.82a1.57,1.57,0,0,1-1.39,1.92q-2.75.45-5.47.94c-3.18.57-4.63,3.23-6.35,5.64-2,2.83-3.91,5.9-7.36,7.16a9.31,9.31,0,0,1-6.94-.11A21.66,21.66,0,0,1,140,109.6Z"/><path class="cls-2" d="M28.43,88.72q-1.26,3.57-2.54,7.13a20.94,20.94,0,0,1-6.46.19A10,10,0,0,1,12,90.24a43.9,43.9,0,0,1-2.77-8.66c-.76-3.28-3-4.84-5.65-6.07A17.11,17.11,0,0,1,.74,73.76a1.43,1.43,0,0,1-.57-1.91c.37-.77,1-.4,1.59-.3,1.89.32,3.35,1.63,5,2.45l.88.39a16.44,16.44,0,0,1-1.39-7c0-.77.38-1.43.7-1.49.52-.1,1,.47,1.25,1.08A43.78,43.78,0,0,1,10,73.61c.89-1.59,1.64-3,2.44-4.34.51-.86,1.14-2,2.25-1.29s.86,1.8.26,2.82a29.39,29.39,0,0,1-1.85,3.07,7.47,7.47,0,0,0-1,8.37c1.66,3.58,3.79,6.69,7.43,8.37,1.56.72,3,.19,4.42-.21S26.94,89.29,28.43,88.72Z"/><path class="cls-2" d="M22.64,153.86l3.61,6.42c-3.23,2.88-3.76,7-4.2,10.95s.13,8.11-.69,12.17A6.61,6.61,0,0,1,12,187.84,7,7,0,0,1,8.8,185.3a1.67,1.67,0,0,1-.37-1.56c.29-.78,1.06-.42,1.39-.4a10,10,0,0,1,3.17.75c2,.83,5.21-.58,5.3-2.58a19.76,19.76,0,0,0-.37-4.6c-.87-4.53-1.4-9-.07-13.57C18.87,159.85,20.15,156.53,22.64,153.86Z"/><path class="cls-2" d="M136.07,153.72c.66-1.58,1.39-3.12,1.94-4.74a13.41,13.41,0,0,1,.85-2c2.13.93,2.7,3.07,3.2,5.05a24.06,24.06,0,0,1-.83,15.24c-.74,1.85-1.53,3.67-2.22,5.54-1.59,4.22.77,5.75,4.36,6a22.69,22.69,0,0,1,3.18.18c1,.22.84.76.51,1.33a4.22,4.22,0,0,1-2.47,1.74c-5.49,2-9.92-1.75-9.46-7.18a31.51,31.51,0,0,1,1.23-5.88c1.15-4.15,1.75-8.43.73-12.74A18.19,18.19,0,0,0,136.07,153.72Z"/><path class="cls-3" d="M76.23,151.35c-7-1.71-12.29-5.12-15.76-11.06-2.87-4.91-3.69-10.4-3.27-16.13A27.2,27.2,0,0,1,62.7,109a23.56,23.56,0,0,1,18.43-9.3,25.67,25.67,0,0,1,17.14,5,24.11,24.11,0,0,1,8,11.54,32,32,0,0,1,1.45,14.33,27.63,27.63,0,0,1-5.25,13.62,16.66,16.66,0,0,1-9.14,6.11A36,36,0,0,1,76.23,151.35Z"/><path class="cls-4" d="M41,101.51c2.49.59,3.54,1.8,3.88,3.86a2.69,2.69,0,0,1-.93,2.53,5.64,5.64,0,0,1-8-.19c-1.73-1.8-.52-5.18,2.23-6.14A3.79,3.79,0,0,1,41,101.51Z"/><path class="cls-4" d="M120.8,104.05c-2.58-.6-4-2.37-3.64-4.47s3.25-3.86,5.55-3.57c2.81.36,4.87,3.34,4,5.6C126,103.37,123.14,104.59,120.8,104.05Z"/><path class="cls-2" d="M89.63,89.16a8.57,8.57,0,0,1-8.55,6.63A9.41,9.41,0,0,1,73.4,92a4.94,4.94,0,0,1-1.08-2.17c-.08-.42-.38-.88.24-1.15s.87.09,1.19.55.66,1.23,1,1.83c3.21,5,11.21,3,13.06-1.45.11-.25.26-.49.39-.73.36-.62.4-1.89,1.28-1.59C90.65,87.68,89.25,88.65,89.63,89.16Z"/><path class="cls-2" d="M115,85.25c.42-2,1.64-3,3.12-2.57,1.77.46,3.43,3.19,3.07,5s-2.14,3.37-3.5,2.9C116,90,114.25,87.37,115,85.25Z"/><path class="cls-2" d="M49.6,89.1C49,92,47.92,92.92,46,92.49c-1.33-.29-1.81-1.16-2-2.47-.38-2.56,2-5,4.27-4.41C49.69,86,50.06,86.94,49.6,89.1Z"/></g></g></svg>