<svg xmlns="http://www.w3.org/2000/svg" viewBox="0 0 374.56 215.99"><defs><style>.cls-1{fill:#ede962;stroke:#37812f;stroke-miterlimit:10;stroke-width:3px;}.cls-1,.cls-2,.cls-3,.cls-4,.cls-5,.cls-6{fill-rule:evenodd;}.cls-2{fill:#f7a29a;}.cls-3,.cls-7{fill:#323130;}.cls-4{fill:#a96f36;}.cls-5{fill:#f26a5b;}.cls-6,.cls-8{fill:#fff;}.cls-9{fill:#2c303a;}.cls-10{fill:#f3f3f3;}</style></defs><g id="Layer_2" data-name="Layer 2"><g id="Layer_1-2" data-name="Layer 1"><path class="cls-1" d="M142.25,155.82a57.86,57.86,0,0,1-3.46,11.58,53.93,53.93,0,0,1-8.91,15.44,55.19,55.19,0,0,1-13.52,11.9,61.59,61.59,0,0,1-18.43,7.57A74.28,74.28,0,0,1,87.22,204a59.4,59.4,0,0,1-8.32.24,72.33,72.33,0,0,1-25.88-6,66.55,66.55,0,0,1-14.14-8.79,11.61,11.61,0,0,0-2.42-2,14.47,14.47,0,0,1-4.86-5.43,66.26,66.26,0,0,1-6.06-10.17,50.86,50.86,0,0,1-3.9-14.71,85.68,85.68,0,0,1-.56-13.76,148.32,148.32,0,0,1,1.23-15c.2-1.21.22-2.46.32-3.69a14.75,14.75,0,0,1,1-7.55c1.12-7,2.13-14,3.38-21,.81-4.53,1.48-9.09,2.18-13.64.5-3.29.72-6.62,1.06-9.93.4-3.81.78-7.63,1.23-11.43a119.65,119.65,0,0,1,2.06-12.82c1.41-6.13,3.46-12,7.29-17,5.26-6.87,12.38-10.39,20.31-12.41,4.61-1.18,9.2-1.41,13.54,1.24a29.65,29.65,0,0,1,8.13,7.67c6,8,10.77,16.87,16.3,25.21,4.16,6.25,8.59,12.28,13.16,18.22,7.27,9.44,14.14,19.21,19.71,29.89a1.87,1.87,0,0,0,.72.89,31.59,31.59,0,0,1,3.94,8.24c.9,2.57,1.79,5.16,2.73,7.72a83,83,0,0,1,3.78,15.32c.59,3.6.36,7.26.38,10.91,0,1.48,0,3,.05,4.45C143.68,151.13,143.65,153.62,142.25,155.82Z"/><path class="cls-2" d="M9.66,56.15c1.62-2.13,2.92-4.45,4.84-6.23.12-.11.23-.24.35-.36,1.61-1.63,3.65-2.37,4.81-1.65,1.41.87,2.53,3.39,2.16,5.81-.9,5.94-4.34,10.42-7.61,15-1.71,2.41-3.63,4.65-5.4,7-.67.88-1.07.69-1.54-.12A53.5,53.5,0,0,1,.32,57.25c-.49-3-.58-5.87.91-8.6,1-1.77,1.71-2,3.44-1.06C6.87,48.82,8.82,52.13,9.66,56.15Z"/><path class="cls-2" d="M147.93,44.83c4.08,0,6.72,2.2,8.86,5A18.74,18.74,0,0,1,160.23,59a6,6,0,0,1-5,6.8c-4,.85-7-.91-9.53-3.76-3-3.4-4.67-7.37-3.51-12.13C142.87,47.31,145,44.42,147.93,44.83Z"/><path class="cls-3" d="M21.65,133.67c.42-2.2-.81-4.32.88-6.7.69,1.55,4,2.5,4.13,4.12.46,5.28,2,6.16,6.8,7.75,2.5.83,5.19.55,7.83.17a4.63,4.63,0,0,0,3.14-2.4c1-1.53,1.79-3.19,3-4.63a2.29,2.29,0,0,1,.83-.73c.63-.27,1.32-.57,1.9,0s.32,1.15,0,1.75a33,33,0,0,1-3.1,4.41,40.88,40.88,0,0,1,5.32-.94,8.27,8.27,0,0,1,1.4-.05c.45.05,1.05,0,1.23.55s-.51.71-.84,1c-2,1.45-4.32,1.81-6.87,2,1.72,1.29,3.26,2.41,4.76,3.58.53.41,1.2,1,.64,1.71a1.53,1.53,0,0,1-2.26.36q-2.19-1.54-4.41-3c-2.59-1.76-5.39-.94-8.2-.48-3.31.54-6.67,1.35-9.91-.12a9.13,9.13,0,0,1-4.73-4.74A20.3,20.3,0,0,1,21.65,133.67Z"/><path class="cls-3" d="M132.2,101.47c2,1.24,4.7,8.87,5.29,10.16-.19,2.11.19,3.65-.59,5.61a9.72,9.72,0,0,1-6.71,6,39.34,39.34,0,0,1-8.43,1.09c-3.13.14-5,2-6.6,4.31A17.71,17.71,0,0,1,113,131.1a1.31,1.31,0,0,1-1.86.2c-.62-.49-.16-1,0-1.57.66-1.76,2.13-2.92,3.2-4.37.15-.21.28-.42.52-.78a14.47,14.47,0,0,1-6.67.06c-.69-.16-1.22-.62-1.21-.94,0-.51.62-.9,1.22-1a39,39,0,0,1,6.41-.53c-1.28-1.14-2.4-2.11-3.48-3.12-.69-.64-1.58-1.44-.74-2.38s1.8-.5,2.61.26a23.44,23.44,0,0,1,2.44,2.33,6.68,6.68,0,0,0,7.43,2.5c3.57-.94,6.82-2.42,9-5.61,1-1.35.75-2.82.66-4.26S132.43,103,132.2,101.47Z"/><path class="cls-3" d="M31.26,180.26l4.87,5.43c-2.55,3.55-2.21,7.65-1.81,11.65s1.83,7.88,1.87,12A6.73,6.73,0,0,1,28,215.84a6.84,6.84,0,0,1-3.7-1.74c-.39-.41-.78-.77-.68-1.44.11-.83.93-.65,1.26-.71a10.19,10.19,0,0,1,3.26,0c2.15.34,5-1.76,4.63-3.73a19.47,19.47,0,0,0-1.32-4.41c-1.8-4.22-3.26-8.48-2.92-13.22C28.84,187,29.4,183.43,31.26,180.26Z"/><path class="cls-3" d="M141.91,154.16c.31-1.69.71-3.37.9-5.08a13.6,13.6,0,0,1,.42-2.13c2.28.43,3.27,2.39,4.18,4.2a24,24,0,0,1,2.38,15.06c-.33,2-.72,3.94-1,5.91-.66,4.49,2,5.44,5.52,4.89a22,22,0,0,1,3.14-.56c1,0,1,.55.77,1.19a4.27,4.27,0,0,1-2,2.25c-4.95,3.16-10,.57-10.73-4.84a31.76,31.76,0,0,1,0-6c.26-4.31-.05-8.63-2-12.61A17.1,17.1,0,0,0,141.91,154.16Z"/><path class="cls-4" d="M83,165.54c-7.18-.08-13.07-2.18-17.7-7.19-3.82-4.13-5.77-9.3-6.56-15a27.53,27.53,0,0,1,2.2-16A24.16,24.16,0,0,1,77,114a25.51,25.51,0,0,1,17.79,1,23.41,23.41,0,0,1,10.2,9.44,31.47,31.47,0,0,1,4.42,13.65,28,28,0,0,1-2.27,14.48,17.07,17.07,0,0,1-7.65,8.06A36.23,36.23,0,0,1,83,165.54Z"/><path class="cls-5" d="M38.19,125c2.56,0,3.83.94,4.6,2.87a2.76,2.76,0,0,1-.38,2.69,5.67,5.67,0,0,1-7.89,1.65c-2.07-1.35-1.58-4.93.89-6.5A3.79,3.79,0,0,1,38.19,125Z"/><path class="cls-5" d="M116.62,109.18c-2.65,0-4.42-1.39-4.5-3.52s2.37-4.52,4.68-4.76c2.81-.29,5.45,2.14,5,4.56C121.53,107.33,119,109.18,116.62,109.18Z"/><path class="cls-3" d="M83.09,101.79a8.78,8.78,0,0,1-7,8.42,9.21,9.21,0,0,1-8.28-1.92,4.7,4.7,0,0,1-1.51-1.87c-.17-.38-.55-.76,0-1.17s.88-.11,1.28.26.9,1,1.4,1.55c4.18,4.17,11.56.37,12.44-4.41a5.48,5.48,0,0,1,.23-.79c.22-.69,0-1.94.91-1.86C83.77,100.11,82.61,101.38,83.09,101.79Z"/><path class="cls-3" d="M107.06,92.15c0-2,1-3.26,2.5-3.22,1.83,0,4,2.33,4.06,4.23s-1.38,3.78-2.81,3.63C109,96.59,106.73,94.4,107.06,92.15Z"/><path class="cls-3" d="M44,110.89c0,2.94-.85,4.11-2.86,4.14-1.36,0-2-.71-2.47-1.94-.91-2.42.84-5.34,3.23-5.28C43.45,107.85,44,108.68,44,110.89Z"/><path class="cls-1" d="M339.47,153.72a57.14,57.14,0,0,1-5.8,10.51,53,53,0,0,1-11.92,13,54,54,0,0,1-15.69,8.51,60.73,60.73,0,0,1-19.57,3.17,73.77,73.77,0,0,1-10.79-.84,60.35,60.35,0,0,1-8.17-1.67,73.74,73.74,0,0,1-24-11.83,68.2,68.2,0,0,1-11.95-11.82,12.13,12.13,0,0,0-1.94-2.5,14.79,14.79,0,0,1-3.61-6.42,67,67,0,0,1-3.79-11.3,51.3,51.3,0,0,1-.72-15.25,84.37,84.37,0,0,1,2.34-13.55,140.63,140.63,0,0,1,4.34-14.37c.44-1.14.72-2.35,1.08-3.54a14.52,14.52,0,0,1,2.54-7.13c2.55-6.57,5-13.18,7.68-19.69,1.75-4.24,3.36-8.53,5-12.81,1.18-3.1,2.08-6.3,3.11-9.45,1.19-3.63,2.36-7.26,3.6-10.87a116.79,116.79,0,0,1,4.69-12C258.56,18.2,261.78,13,266.57,9c6.56-5.5,14.25-7.3,22.41-7.46,4.74-.1,9.27.73,12.95,4.31a30.33,30.33,0,0,1,6.32,9.35c4.23,9.16,7,18.93,10.64,28.32,2.75,7.06,5.8,14,9,20.8,5.12,10.88,9.78,22,13,33.68a1.94,1.94,0,0,0,.51,1,32.3,32.3,0,0,1,2.12,8.94c.35,2.73.67,5.45,1.05,8.17a82.72,82.72,0,0,1,.48,15.81c-.18,3.65-1.17,7.17-1.91,10.73-.31,1.45-.59,2.9-.88,4.36C341.85,149.47,341.3,151.89,339.47,153.72Z"/><path class="cls-2" d="M230.93,27.82c2-1.71,3.78-3.67,6-5l.42-.27c1.91-1.23,4.06-1.48,5-.52,1.19,1.18,1.75,3.89.89,6.17-2.12,5.59-6.41,9.18-10.56,12.9-2.18,1.95-4.52,3.7-6.74,5.61-.84.71-1.19.43-1.48-.47a54.28,54.28,0,0,1-2.94-19.52c.15-3,.66-5.85,2.69-8.18,1.3-1.5,2.09-1.57,3.58-.24C229.75,20,231,23.71,230.93,27.82Z"/><path class="cls-2" d="M187.79,115.38a33.06,33.06,0,0,1,4.41-3.68c1.36-.81,2.77-1.58,4.22-.41,1.21,1,1.28,3.23.45,5.06-1.7,3.75-4.62,6.38-7.53,9-1.68,1.52-3.47,2.9-5.21,4.33-.57.47-1.07.6-1.33-.35-1.61-5.79-3.09-11.58-1.62-17.69a7.42,7.42,0,0,1,1.14-2.6c1.16-1.68,2.54-1.65,3.76,0S187.66,113,187.79,115.38Z"/><path class="cls-3" d="M343.35,109.6a70,70,0,0,1-2.12-8.94c1.65.66,2.61,2.21,3.9,3.32,4.21,3.65,6,3.21,10.66.88,2.45-1.21,4.21-3.4,5.86-5.61a4.82,4.82,0,0,0,.55-4.11c-.38-1.89-1-3.72-1.22-5.66a2.48,2.48,0,0,1,.08-1.16c.26-.66.54-1.39,1.4-1.37s1.08.63,1.28,1.32a36.44,36.44,0,0,1,1,5.6,42.15,42.15,0,0,1,3.2-4.6,8.49,8.49,0,0,1,1-1.07c.37-.29.76-.78,1.3-.48s.15.9.09,1.34c-.4,2.55-1.84,4.53-3.59,6.53,2.21-.3,4.16-.58,6.12-.79.69-.08,1.58-.15,1.71.82a1.57,1.57,0,0,1-1.39,1.92q-2.73.45-5.46.94c-3.19.57-4.63,3.23-6.36,5.64-2,2.83-3.9,5.9-7.35,7.16a9.33,9.33,0,0,1-7-.11A21.56,21.56,0,0,1,343.35,109.6Z"/><path class="cls-3" d="M231.83,88.72c-.85,2.38-1.69,4.76-2.54,7.13a21,21,0,0,1-6.47.19,10,10,0,0,1-7.4-5.8,43.93,43.93,0,0,1-2.78-8.66c-.76-3.28-3-4.84-5.64-6.07a16.72,16.72,0,0,1-2.86-1.75,1.44,1.44,0,0,1-.58-1.91c.38-.77,1-.4,1.59-.3,1.9.32,3.36,1.63,5,2.45l.88.39a16.44,16.44,0,0,1-1.39-7c0-.77.38-1.43.71-1.49.51-.1,1,.47,1.25,1.08a45,45,0,0,1,1.81,6.66c.89-1.59,1.64-3,2.44-4.34.51-.86,1.14-2,2.24-1.29s.86,1.8.26,2.82a26.31,26.31,0,0,1-1.85,3.07,7.49,7.49,0,0,0-1,8.37c1.66,3.58,3.8,6.69,7.44,8.37,1.55.72,3,.19,4.42-.21S230.34,89.29,231.83,88.72Z"/><path class="cls-3" d="M226,153.86q1.8,3.21,3.61,6.42c-3.23,2.88-3.76,7-4.2,10.95s.13,8.11-.7,12.17a6.6,6.6,0,0,1-9.31,4.44,6.92,6.92,0,0,1-3.24-2.54,1.67,1.67,0,0,1-.37-1.56c.29-.78,1-.42,1.38-.4a9.92,9.92,0,0,1,3.17.75c2,.83,5.22-.58,5.31-2.58a19.76,19.76,0,0,0-.37-4.6c-.87-4.53-1.41-9-.08-13.57C222.26,159.85,223.55,156.53,226,153.86Z"/><path class="cls-3" d="M339.47,153.72c.65-1.58,1.39-3.12,1.93-4.74a14.61,14.61,0,0,1,.86-2c2.13.93,2.69,3.07,3.2,5.05a24.13,24.13,0,0,1-.83,15.24c-.74,1.85-1.53,3.67-2.23,5.54-1.58,4.22.78,5.75,4.37,6A22.78,22.78,0,0,1,350,179c.95.22.84.76.51,1.33A4.25,4.25,0,0,1,348,182.1c-5.49,2-9.92-1.75-9.46-7.18a30.73,30.73,0,0,1,1.23-5.88c1.15-4.15,1.75-8.43.73-12.74A19.47,19.47,0,0,0,339.47,153.72Z"/><path class="cls-6" d="M279.63,151.35c-7-1.71-12.3-5.12-15.77-11.06-2.86-4.91-3.69-10.4-3.26-16.13A27.2,27.2,0,0,1,266.1,109a23.54,23.54,0,0,1,18.42-9.3,25.7,25.7,0,0,1,17.15,5,24,24,0,0,1,8,11.54,32,32,0,0,1,1.46,14.33,27.72,27.72,0,0,1-5.25,13.62,16.65,16.65,0,0,1-9.15,6.11A36,36,0,0,1,279.63,151.35Z"/><path class="cls-5" d="M244.37,101.51c2.49.59,3.53,1.8,3.88,3.86a2.71,2.71,0,0,1-.93,2.53,5.66,5.66,0,0,1-8-.19c-1.73-1.8-.51-5.18,2.23-6.14A3.81,3.81,0,0,1,244.37,101.51Z"/><path class="cls-5" d="M324.2,104.05c-2.58-.6-4-2.37-3.65-4.47s3.26-3.86,5.56-3.57c2.8.36,4.87,3.34,4,5.6C329.38,103.37,326.54,104.59,324.2,104.05Z"/><path class="cls-3" d="M293,89.16a8.57,8.57,0,0,1-8.55,6.63A9.4,9.4,0,0,1,276.8,92a4.84,4.84,0,0,1-1.08-2.17c-.08-.42-.38-.88.23-1.15s.88.09,1.2.55.66,1.23,1,1.83c3.2,5,11.2,3,13.06-1.45a7.33,7.33,0,0,1,.39-.73c.36-.62.4-1.89,1.28-1.59C294.05,87.68,292.65,88.65,293,89.16Z"/><path class="cls-3" d="M318.43,85.25c.43-2,1.64-3,3.12-2.57,1.78.46,3.44,3.19,3.08,5s-2.15,3.37-3.5,2.9C319.35,90,317.65,87.37,318.43,85.25Z"/><path class="cls-3" d="M253,89.1c-.62,2.87-1.68,3.82-3.66,3.39-1.33-.29-1.81-1.16-2-2.47-.39-2.56,1.94-5,4.26-4.41C253.08,86,253.46,86.94,253,89.1Z"/><path class="cls-7" d="M42.74,108.29a2.76,2.76,0,0,0-.36-3.56c-.17-.18-.44.09-.27.27a2.63,2.63,0,0,1,.72,1.46,2.73,2.73,0,0,1-.42,1.64c-.13.21.2.4.33.19Z"/><path class="cls-7" d="M41.36,108.36a3.11,3.11,0,0,0-.19-2,2.81,2.81,0,0,0-1.33-1.26c-.22-.1-.42.23-.2.33a2.57,2.57,0,0,1,1.19,1.09,2.62,2.62,0,0,1,.16,1.68c0,.25.33.35.37.11Z"/><path class="cls-7" d="M39.87,109.33a2.35,2.35,0,0,0-.1-1.69,2.38,2.38,0,0,0-1.29-1c-.23-.08-.33.29-.1.37a1.66,1.66,0,0,1,1.12,2.24.19.19,0,0,0,.37.1Z"/><path class="cls-7" d="M110.81,89.52a3.08,3.08,0,0,0,.47-1.89,2.92,2.92,0,0,0-.83-1.67c-.16-.18-.43.09-.27.27a2.55,2.55,0,0,1,.73,1.45,2.7,2.7,0,0,1-.43,1.64.19.19,0,0,0,.33.2Z"/><path class="cls-7" d="M109.44,89.58a3.15,3.15,0,0,0-.19-1.94,2.83,2.83,0,0,0-1.34-1.26c-.22-.11-.41.22-.19.33a2.5,2.5,0,0,1,1.18,1.09,2.69,2.69,0,0,1,.17,1.68c0,.24.32.34.37.1Z"/><path class="cls-7" d="M107.94,90.56a2,2,0,0,0-1.39-2.71c-.23-.09-.33.28-.1.37a1.89,1.89,0,0,1,1.06.84,1.93,1.93,0,0,1,.06,1.4.19.19,0,0,0,.37.1Z"/><path class="cls-8" d="M41.64,111.4a.88.88,0,1,1-1.74,0,.88.88,0,1,1,1.74,0Z"/><ellipse class="cls-8" cx="109.12" cy="93.05" rx="0.87" ry="0.97"/><path class="cls-2" d="M91.34,140.52a2.55,2.55,0,0,1,1.38-1.87,3.94,3.94,0,0,1,2.1-.48,1.31,1.31,0,0,1,1.27,1.38,2.29,2.29,0,0,1-1.15,2.06,2.64,2.64,0,0,1-2.72.4A1.33,1.33,0,0,1,91.34,140.52Z"/><path class="cls-2" d="M70.22,147.75a2.55,2.55,0,0,1,1.38-1.87,3.94,3.94,0,0,1,2.1-.48A1.31,1.31,0,0,1,75,146.78a2.31,2.31,0,0,1-1.15,2.06,2.66,2.66,0,0,1-2.72.4A1.34,1.34,0,0,1,70.22,147.75Z"/><path class="cls-9" d="M69.77,143.84a1.94,1.94,0,0,0,2.38-2,3.48,3.48,0,0,0-2-3.39C67.46,137.69,66.85,142.92,69.77,143.84Z"/><path class="cls-10" d="M69.22,142.07c.3.1.58-.14.61-.51a.88.88,0,0,0-.51-.86C68.63,140.51,68.48,141.84,69.22,142.07Z"/><path class="cls-9" d="M92.63,135.91a2,2,0,0,0,2.38-2,3.48,3.48,0,0,0-2-3.39C90.32,129.75,89.71,135,92.63,135.91Z"/><path class="cls-10" d="M92.08,134.14a.5.5,0,0,0,.61-.51.88.88,0,0,0-.52-.86C91.49,132.57,91.34,133.9,92.08,134.14Z"/><path class="cls-9" d="M81.87,146.89c1.09,1.24,2.92,1.48,2.88-.62s2.07-2.05,2.52.06c.52,2.44-.8,4.55-2.57,4.75s-3.41-1.39-3.72-3.7c-.08-.62.5-.94.89-.49Z"/></g></g></svg>